<svg width="24" height="24" viewBox="0 0 24 24" fill="none" xmlns="http://www.w3.org/2000/svg">
<path d="M12 16L10.75 13.25L8 12L10.75 10.75L12 8L13.25 10.75L16 12L13.25 13.25L12 16ZM5 22C4.16667 22 3.45834 21.7083 2.875 21.125C2.29167 20.5417 2 19.8333 2 19C2 18.35 2.18767 17.7707 2.563 17.262C2.93834 16.7533 3.41734 16.391 4 16.175V7.825C3.41667 7.60834 2.93734 7.24567 2.562 6.737C2.18667 6.22834 1.99934 5.64933 2 5C2 4.16667 2.29167 3.45834 2.875 2.875C3.45834 2.29167 4.16667 2 5 2C5.65 2 6.22934 2.18767 6.738 2.563C7.24667 2.93834 7.60867 3.41734 7.824 4H16.174C16.374 3.41667 16.7283 2.93734 17.237 2.562C17.7457 2.18667 18.3333 1.99934 19 2C19.8333 2 20.5417 2.29167 21.125 2.875C21.7083 3.45834 22 4.16667 22 5C22 5.66667 21.8123 6.25434 21.437 6.763C21.0617 7.27167 20.5827 7.62567 20 7.825V16.175C20.5833 16.3917 21.0627 16.7543 21.438 17.263C21.8133 17.7717 22.0007 18.3507 22 19C22 19.8333 21.7083 20.5417 21.125 21.125C20.5417 21.7083 19.8333 22 19 22C18.35 22 17.7707 21.8123 17.262 21.437C16.7533 21.0617 16.391 20.5827 16.175 20H7.825C7.60834 20.5833 7.24567 21.0627 6.737 21.438C6.22834 21.8133 5.64933 22.0007 5 22ZM5 6C5.28333 6 5.521 5.904 5.713 5.712C5.905 5.52 6.00067 5.28267 6 5C6 4.71667 5.904 4.479 5.712 4.287C5.52 4.095 5.28267 3.99934 5 4C4.71667 4 4.479 4.096 4.287 4.288C4.095 4.48 3.99934 4.71733 4 5C4 5.28333 4.096 5.521 4.288 5.713C4.48 5.905 4.71733 6.00067 5 6ZM19 6C19.2833 6 19.521 5.904 19.713 5.712C19.905 5.52 20.0007 5.28267 20 5C20 4.71667 19.904 4.479 19.712 4.287C19.52 4.095 19.2827 3.99934 19 4C18.7167 4 18.479 4.096 18.287 4.288C18.095 4.48 17.9993 4.71733 18 5C18 5.28333 18.096 5.521 18.288 5.713C18.48 5.905 18.7173 6.00067 19 6ZM7.825 18H16.175C16.325 17.5667 16.5583 17.1917 16.875 16.875C17.1917 16.5583 17.5667 16.325 18 16.175V7.825C17.5667 7.675 17.1917 7.44167 16.875 7.125C16.5583 6.80834 16.325 6.43334 16.175 6H7.825C7.675 6.43334 7.44167 6.80834 7.125 7.125C6.80834 7.44167 6.43334 7.675 6 7.825V16.175C6.43334 16.325 6.80834 16.5583 7.125 16.875C7.44167 17.1917 7.675 17.5667 7.825 18ZM19 20C19.2833 20 19.521 19.904 19.713 19.712C19.905 19.52 20.0007 19.2827 20 19C20 18.7167 19.904 18.479 19.712 18.287C19.52 18.095 19.2827 17.9993 19 18C18.7167 18 18.479 18.096 18.287 18.288C18.095 18.48 17.9993 18.7173 18 19C18 19.2833 18.096 19.521 18.288 19.713C18.48 19.905 18.7173 20.0007 19 20ZM5 20C5.28333 20 5.521 19.904 5.713 19.712C5.905 19.52 6.00067 19.2827 6 19C6 18.7167 5.904 18.479 5.712 18.287C5.52 18.095 5.28267 17.9993 5 18C4.71667 18 4.479 18.096 4.287 18.288C4.095 18.48 3.99934 18.7173 4 19C4 19.2833 4.096 19.521 4.288 19.713C4.48 19.905 4.71733 20.0007 5 20Z" fill="black"/>
</svg>
