<svg width="24" height="24" viewBox="0 0 24 24" fill="none" xmlns="http://www.w3.org/2000/svg">
<g clip-path="url(#clip0_44_6077)">
<path d="M5.14283 12V7.49142C5.15622 6.60519 5.34435 5.73031 5.69644 4.91691C6.04853 4.10351 6.55766 3.36758 7.19466 2.75128C7.83165 2.13499 8.584 1.65044 9.40858 1.32541C10.2332 1.00037 11.1138 0.841243 12 0.857131C12.8862 0.841243 13.7668 1.00037 14.5914 1.32541C15.4159 1.65044 16.1683 2.13499 16.8053 2.75128C17.4423 3.36758 17.9514 4.10351 18.3035 4.91691C18.6556 5.73031 18.8437 6.60519 18.8571 7.49142V12M15.4285 21C16.3379 21 17.2099 20.6388 17.8529 19.9958C18.4959 19.3528 18.8571 18.4807 18.8571 17.5714V13.7143M15.4285 21C15.4285 21.5683 15.2028 22.1134 14.8009 22.5152C14.3991 22.9171 13.854 23.1428 13.2857 23.1428H10.7143C10.1459 23.1428 9.60089 22.9171 9.19903 22.5152C8.79717 22.1134 8.5714 21.5683 8.5714 21C8.5714 20.4317 8.79717 19.8866 9.19903 19.4848C9.60089 19.0829 10.1459 18.8571 10.7143 18.8571H13.2857C13.854 18.8571 14.3991 19.0829 14.8009 19.4848C15.2028 19.8866 15.4285 20.4317 15.4285 21ZM2.5714 9.42856H4.28569C4.51302 9.42856 4.73103 9.51887 4.89178 9.67961C5.05252 9.84036 5.14283 10.0584 5.14283 10.2857V15.4286C5.14283 15.6559 5.05252 15.8739 4.89178 16.0347C4.73103 16.1954 4.51302 16.2857 4.28569 16.2857H2.5714C2.11675 16.2857 1.68071 16.1051 1.35922 15.7836C1.03773 15.4621 0.857117 15.0261 0.857117 14.5714V11.1428C0.857117 10.6882 1.03773 10.2522 1.35922 9.93066C1.68071 9.60917 2.11675 9.42856 2.5714 9.42856ZM21.4285 16.2857H19.7143C19.4869 16.2857 19.2689 16.1954 19.1082 16.0347C18.9474 15.8739 18.8571 15.6559 18.8571 15.4286V10.2857C18.8571 10.0584 18.9474 9.84036 19.1082 9.67961C19.2689 9.51887 19.4869 9.42856 19.7143 9.42856H21.4285C21.8832 9.42856 22.3192 9.60917 22.6407 9.93066C22.9622 10.2522 23.1428 10.6882 23.1428 11.1428V14.5714C23.1428 15.0261 22.9622 15.4621 22.6407 15.7836C22.3192 16.1051 21.8832 16.2857 21.4285 16.2857Z" stroke="black" stroke-linecap="round" stroke-linejoin="round"/>
</g>
<defs>
<clipPath id="clip0_44_6077">
<rect width="24" height="24" fill="black"/>
</clipPath>
</defs>
</svg>
