<svg width="24" height="24" viewBox="0 0 24 24" fill="none" xmlns="http://www.w3.org/2000/svg">
<g clip-path="url(#clip0_44_6056)">
<path d="M20 6.00001H10.9467L9.40669 3.88001C9.28256 3.71015 9.12 3.57207 8.9323 3.47706C8.74459 3.38205 8.53707 3.3328 8.32669 3.33335H4.00002C3.6464 3.33335 3.30726 3.47382 3.05721 3.72387C2.80716 3.97392 2.66669 4.31306 2.66669 4.66668V19.3333C2.66669 19.687 2.80716 20.0261 3.05721 20.2762C3.30726 20.5262 3.6464 20.6667 4.00002 20.6667H20C20.3536 20.6667 20.6928 20.5262 20.9428 20.2762C21.1929 20.0261 21.3334 19.687 21.3334 19.3333V7.33335C21.3334 6.97973 21.1929 6.64059 20.9428 6.39054C20.6928 6.14049 20.3536 6.00001 20 6.00001ZM20 19.3333H4.00002V8.66668H8.87335C9.22698 8.66668 9.56611 8.5262 9.81616 8.27616C10.0662 8.02611 10.2067 7.68697 10.2067 7.33335H4.00002V4.66668H8.32669L10.0667 7.06001C10.1287 7.14495 10.21 7.21399 10.3039 7.26149C10.3977 7.309 10.5015 7.33362 10.6067 7.33335H20V19.3333Z" fill="black"/>
</g>
<defs>
<clipPath id="clip0_44_6056">
<rect width="24" height="24" fill="black"/>
</clipPath>
</defs>
</svg>
