<svg width="24" height="24" viewBox="0 0 24 24" fill="none" xmlns="http://www.w3.org/2000/svg">
<path d="M1.75 1H14.25C15.216 1 16 1.784 16 2.75V12.25C16 12.7141 15.8156 13.1592 15.4874 13.4874C15.1592 13.8156 14.7141 14 14.25 14H8.061L5.487 16.573C5.28305 16.7762 5.02352 16.9144 4.74112 16.9703C4.45872 17.0262 4.16609 16.9973 3.90011 16.8871C3.63414 16.777 3.40673 16.5905 3.24655 16.3513C3.08636 16.1121 3.00058 15.8309 3 15.543V14H1.75C1.28587 14 0.840752 13.8156 0.512563 13.4874C0.184374 13.1592 0 12.7141 0 12.25L0 2.75C0 1.784 0.784 1 1.75 1ZM1.5 2.75V12.25C1.5 12.388 1.612 12.5 1.75 12.5H3.75C3.94891 12.5 4.13968 12.579 4.28033 12.7197C4.42098 12.8603 4.5 13.0511 4.5 13.25V15.44L7.22 12.72C7.28954 12.6503 7.37215 12.595 7.4631 12.5572C7.55404 12.5195 7.65153 12.5 7.75 12.5H14.25C14.3163 12.5 14.3799 12.4737 14.4268 12.4268C14.4737 12.3799 14.5 12.3163 14.5 12.25V2.75C14.5 2.6837 14.4737 2.62011 14.4268 2.57322C14.3799 2.52634 14.3163 2.5 14.25 2.5H1.75C1.6837 2.5 1.62011 2.52634 1.57322 2.57322C1.52634 2.62011 1.5 2.6837 1.5 2.75Z" fill="black"/>
<path d="M22.5 8.75C22.5 8.6837 22.4737 8.62011 22.4268 8.57322C22.3799 8.52634 22.3163 8.5 22.25 8.5H18.75C18.5511 8.5 18.3603 8.42098 18.2197 8.28033C18.079 8.13968 18 7.94891 18 7.75C18 7.55109 18.079 7.36032 18.2197 7.21967C18.3603 7.07902 18.5511 7 18.75 7H22.25C23.216 7 24 7.784 24 8.75V18.25C24 18.7141 23.8156 19.1592 23.4874 19.4874C23.1592 19.8156 22.7141 20 22.25 20H21V21.543C20.9999 21.8311 20.9144 22.1127 20.7543 22.3522C20.5942 22.5917 20.3667 22.7784 20.1005 22.8886C19.8343 22.9988 19.5415 23.0277 19.2589 22.9715C18.9763 22.9153 18.7168 22.7767 18.513 22.573L15.939 20H10.75C10.2859 20 9.84075 19.8156 9.51256 19.4874C9.18437 19.1592 9 18.7141 9 18.25V16.785C9 16.5861 9.07902 16.3953 9.21967 16.2547C9.36032 16.114 9.55109 16.035 9.75 16.035C9.94891 16.035 10.1397 16.114 10.2803 16.2547C10.421 16.3953 10.5 16.5861 10.5 16.785V18.25C10.5 18.388 10.612 18.5 10.75 18.5H16.25C16.4488 18.5002 16.6395 18.5793 16.78 18.72L19.5 21.44V19.25C19.5 19.0511 19.579 18.8603 19.7197 18.7197C19.8603 18.579 20.0511 18.5 20.25 18.5H22.25C22.3163 18.5 22.3799 18.4737 22.4268 18.4268C22.4737 18.3799 22.5 18.3163 22.5 18.25V8.75Z" fill="black"/>
</svg>
