<svg width="12" height="12" viewBox="0 0 12 12" fill="none" xmlns="http://www.w3.org/2000/svg">
<path d="M11 6.83167H6.83329V10.9983C6.83329 11.2193 6.7455 11.4313 6.58922 11.5876C6.43293 11.7439 6.22097 11.8317 5.99996 11.8317C5.77895 11.8317 5.56698 11.7439 5.4107 11.5876C5.25442 11.4313 5.16663 11.2193 5.16663 10.9983V6.83167H0.999959C0.778946 6.83167 0.566984 6.74387 0.410704 6.58759C0.254424 6.43131 0.166626 6.21935 0.166626 5.99833C0.166626 5.77732 0.254424 5.56536 0.410704 5.40908C0.566984 5.2528 0.778946 5.165 0.999959 5.165H5.16663V0.998334C5.16663 0.777321 5.25442 0.565359 5.4107 0.409078C5.56698 0.252798 5.77895 0.165001 5.99996 0.165001C6.22097 0.165001 6.43293 0.252798 6.58922 0.409078C6.7455 0.565359 6.83329 0.777321 6.83329 0.998334V5.165H11C11.221 5.165 11.4329 5.2528 11.5892 5.40908C11.7455 5.56536 11.8333 5.77732 11.8333 5.99833C11.8333 6.21935 11.7455 6.43131 11.5892 6.58759C11.4329 6.74387 11.221 6.83167 11 6.83167Z" fill="#212529"/>
</svg>
