<svg width="24" height="24" viewBox="0 0 24 24" fill="none" xmlns="http://www.w3.org/2000/svg">
<path d="M13.7212 10.7404C13.8167 10.8294 13.9129 10.9138 14.0114 10.9922C14.7721 11.6026 15.5854 11.865 16.3597 11.9063C17.663 11.9759 18.8225 11.3944 19.2937 11.1573L19.4264 11.0924C19.7093 10.959 19.9277 10.7187 20.0334 10.4243C20.1391 10.1299 20.1236 9.8055 19.9901 9.52255C19.8567 9.23961 19.6164 9.02126 19.322 8.91552C19.0276 8.80979 18.7032 8.82535 18.4203 8.95876L18.2233 9.05312C17.702 9.30494 17.1222 9.58448 16.4853 9.55086C16.1757 9.53376 15.8419 9.43645 15.4875 9.1522C15.1189 8.85615 14.6784 8.31772 14.2526 7.34052C13.9076 6.54908 13.3933 5.93575 12.6632 5.58722C11.9638 5.25343 11.2195 5.23927 10.5561 5.3183C8.778 5.52942 7.42691 6.56029 6.50809 7.51803C5.75145 8.30592 5.18707 9.16104 4.9099 9.58035C4.85387 9.66586 4.80964 9.73309 4.77779 9.77791C4.60301 10.0338 4.53595 10.3482 4.59112 10.6531C4.64629 10.9581 4.81924 11.2291 5.0726 11.4075C5.32596 11.5859 5.63937 11.6575 5.94507 11.6067C6.25076 11.5559 6.52419 11.3869 6.70624 11.1361C6.77229 11.0429 6.84483 10.9338 6.92563 10.8117C7.2205 10.3682 7.62447 9.76081 8.21008 9.15102C8.67126 8.67038 9.18787 8.25461 9.75638 7.98156L9.3241 9.17402C8.88769 10.3806 8.40234 11.7335 8.3239 12.0048C8.27154 12.1882 8.26027 12.3809 8.29088 12.5692C8.30916 12.6883 8.341 12.7891 8.36636 12.8599C8.41649 13.0003 8.48313 13.1335 8.54211 13.2409C8.66241 13.4626 8.82754 13.718 9.00505 13.9769C9.36479 14.5023 9.84956 15.1481 10.3302 15.7732C10.7548 16.3246 11.1871 16.8737 11.5427 17.3254L11.6848 17.5065C11.8759 17.7488 12.0357 17.9523 12.1531 18.105C12.2062 18.1735 12.2415 18.2218 12.2651 18.2525C12.2881 18.3309 12.317 18.4447 12.3518 18.5939C12.4208 18.8906 12.4999 19.2763 12.5836 19.7003C12.6379 19.9728 12.6939 20.2635 12.7487 20.5507C12.8608 21.1304 12.9699 21.6966 13.0536 22.0752C13.0871 22.2264 13.15 22.3696 13.2388 22.4965C13.3276 22.6235 13.4405 22.7317 13.5711 22.815C13.7017 22.8983 13.8475 22.955 14 22.982C14.1525 23.009 14.3089 23.0056 14.4601 22.9722C14.6114 22.9387 14.7546 22.8758 14.8815 22.787C15.0085 22.6982 15.1167 22.5853 15.1999 22.4547C15.2832 22.3241 15.34 22.1783 15.367 22.0258C15.3939 21.8733 15.3906 21.7169 15.3571 21.5656C15.2805 21.2177 15.182 20.7105 15.0752 20.155C15.018 19.8589 14.9585 19.5493 14.8983 19.2432C14.8216 18.8474 14.7386 18.4528 14.6495 18.0596C14.6139 17.9033 14.5742 17.748 14.5303 17.5937C14.5008 17.4947 14.4407 17.2883 14.3381 17.1084C14.2428 16.9577 14.1393 16.8124 14.0279 16.6732L14.022 16.6661C13.8958 16.5015 13.7283 16.2886 13.5384 16.0474L13.3951 15.8652C12.9476 15.2985 12.5038 14.729 12.0634 14.1567L13.7212 10.7404ZM9.54997 17.8868L7.86626 15.5473L7.38268 16.9385L4.44931 16.2491C4.14478 16.1776 3.8243 16.2299 3.55837 16.3947C3.29243 16.5594 3.10283 16.823 3.03128 17.1275C2.95972 17.4321 3.01207 17.7526 3.1768 18.0185C3.34154 18.2844 3.60517 18.474 3.9097 18.5456L7.87747 19.478C8.16133 19.5446 8.45981 19.5037 8.7153 19.3632C8.9708 19.2227 9.16521 18.9926 9.261 18.7172L9.54997 17.8868Z" stroke="black" stroke-linecap="round" stroke-linejoin="round"/>
<path fill-rule="evenodd" clip-rule="evenodd" d="M16.27 4.71792C16.7392 4.71792 17.1892 4.53152 17.521 4.19973C17.8528 3.86794 18.0392 3.41793 18.0392 2.9487C18.0392 2.47947 17.8528 2.02947 17.521 1.69767C17.1892 1.36588 16.7392 1.17948 16.27 1.17948C15.8008 1.17948 15.3508 1.36588 15.019 1.69767C14.6872 2.02947 14.5008 2.47947 14.5008 2.9487C14.5008 3.41793 14.6872 3.86794 15.019 4.19973C15.3508 4.53152 15.8008 4.71792 16.27 4.71792ZM16.27 5.8974C17.052 5.8974 17.802 5.58674 18.355 5.03375C18.908 4.48076 19.2187 3.73075 19.2187 2.9487C19.2187 2.16666 18.908 1.41664 18.355 0.863655C17.802 0.310666 17.052 0 16.27 0C15.4879 0 14.7379 0.310666 14.1849 0.863655C13.632 1.41664 13.3213 2.16666 13.3213 2.9487C13.3213 3.73075 13.632 4.48076 14.1849 5.03375C14.7379 5.58674 15.4879 5.8974 16.27 5.8974Z" fill="black"/>
</svg>
