<svg width="27" height="27" viewBox="0 0 27 27" fill="none" xmlns="http://www.w3.org/2000/svg">
<path fill-rule="evenodd" clip-rule="evenodd" d="M13.5 27C20.9558 27 27 20.9558 27 13.5C27 6.04416 20.9558 0 13.5 0C6.04416 0 0 6.04416 0 13.5C0 20.9558 6.04416 27 13.5 27Z" fill="white"/>
<path d="M17.0391 11.8438V10.2266C17.0391 9.85156 17.2148 9.59375 17.5664 9.45312C17.918 9.3125 18.2227 9.37109 18.4805 9.62891L21.5039 12.6523C21.668 12.8164 21.75 13.0156 21.75 13.25C21.75 13.4844 21.668 13.6836 21.5039 13.8477L18.4805 16.8711C18.2227 17.1289 17.918 17.1875 17.5664 17.0469C17.2148 16.9062 17.0391 16.6484 17.0391 16.2734V14.6562H6.42188C6.14062 14.6562 6 14.5156 6 14.2344V12.2656C6 11.9844 6.14062 11.8438 6.42188 11.8438H17.0391Z" fill="#4EA42F"/>
</svg>
