<svg width="362" height="68" viewBox="0 0 362 68" fill="none" xmlns="http://www.w3.org/2000/svg">
<path d="M104.971 30.0263H98.2463C98.1566 29.3359 97.9728 28.7127 97.6948 28.1568C97.4169 27.6008 97.0492 27.1256 96.5919 26.7311C96.1346 26.3365 95.5921 26.0362 94.9645 25.8299C94.3458 25.6147 93.6598 25.5071 92.9066 25.5071C91.5706 25.5071 90.4184 25.8344 89.45 26.489C88.4905 27.1435 87.7508 28.0895 87.2307 29.3269C86.7196 30.5643 86.4641 32.0618 86.4641 33.8192C86.4641 35.6484 86.7241 37.1818 87.2442 38.4192C87.7732 39.6476 88.5129 40.5756 89.4634 41.2033C90.4228 41.822 91.5571 42.1314 92.8663 42.1314C93.6015 42.1314 94.2696 42.0372 94.8703 41.8489C95.4801 41.6606 96.0136 41.3871 96.4709 41.0285C96.9371 40.6608 97.3182 40.217 97.6141 39.6969C97.919 39.1679 98.1297 38.5716 98.2463 37.9081L104.971 37.9484C104.855 39.1679 104.501 40.3694 103.909 41.553C103.326 42.7366 102.523 43.8171 101.501 44.7945C100.479 45.7629 99.2326 46.534 97.7621 47.1079C96.3005 47.6817 94.6237 47.9687 92.7318 47.9687C90.239 47.9687 88.0063 47.4217 86.0337 46.3278C84.0699 45.2249 82.5187 43.6198 81.3799 41.5127C80.2412 39.4055 79.6718 36.841 79.6718 33.8192C79.6718 30.7885 80.2501 28.2195 81.4068 26.1124C82.5635 24.0052 84.1282 22.4047 86.1009 21.3107C88.0736 20.2168 90.2839 19.6698 92.7318 19.6698C94.3996 19.6698 95.9418 19.9029 97.3586 20.3692C98.7753 20.8265 100.022 21.499 101.098 22.3867C102.174 23.2655 103.048 24.3459 103.72 25.6282C104.393 26.9104 104.81 28.3765 104.971 30.0263ZM108.781 47.5921V26.9328H115.17V30.6988H115.385C115.762 29.3359 116.376 28.3227 117.228 27.6591C118.079 26.9866 119.07 26.6504 120.2 26.6504C120.505 26.6504 120.819 26.6728 121.142 26.7176C121.464 26.7535 121.765 26.8118 122.043 26.8925V32.6087C121.729 32.5011 121.316 32.416 120.805 32.3532C120.303 32.2904 119.855 32.259 119.46 32.259C118.68 32.259 117.976 32.4339 117.349 32.7836C116.73 33.1243 116.241 33.604 115.883 34.2227C115.533 34.8325 115.358 35.5498 115.358 36.3747V47.5921H108.781ZM129.373 55.3393C128.584 55.3393 127.84 55.2765 127.14 55.151C126.441 55.0344 125.84 54.8775 125.338 54.6802L126.791 49.9055C127.436 50.1207 128.019 50.2462 128.539 50.2821C129.068 50.3179 129.521 50.2328 129.898 50.0265C130.283 49.8293 130.579 49.4751 130.785 48.964L131.041 48.3453L123.697 26.9328H130.584L134.39 41.6741H134.605L138.465 26.9328H145.392L137.604 49.5692C137.228 50.699 136.694 51.6943 136.004 52.5551C135.322 53.4249 134.439 54.1064 133.354 54.5995C132.278 55.0927 130.951 55.3393 129.373 55.3393ZM147.914 55.3393V26.9328H154.424V30.4702H154.625C154.894 29.8425 155.276 29.2373 155.769 28.6544C156.271 28.0716 156.907 27.5964 157.679 27.2287C158.459 26.8521 159.391 26.6638 160.476 26.6638C161.911 26.6638 163.251 27.0404 164.498 27.7936C165.753 28.5468 166.766 29.708 167.537 31.2772C168.309 32.8464 168.694 34.8459 168.694 37.2759C168.694 39.6162 168.322 41.5754 167.578 43.1536C166.843 44.7317 165.847 45.9153 164.592 46.7044C163.346 47.4934 161.96 47.888 160.436 47.888C159.396 47.888 158.495 47.7176 157.732 47.3769C156.97 47.0361 156.329 46.5878 155.809 46.0319C155.298 45.4759 154.903 44.8796 154.625 44.243H154.491V55.3393H147.914ZM154.356 37.2625C154.356 38.3743 154.504 39.3427 154.8 40.1677C155.105 40.9926 155.54 41.6337 156.105 42.091C156.679 42.5393 157.365 42.7635 158.163 42.7635C158.97 42.7635 159.656 42.5393 160.221 42.091C160.786 41.6337 161.211 40.9926 161.498 40.1677C161.794 39.3427 161.942 38.3743 161.942 37.2625C161.942 36.1506 161.794 35.1867 161.498 34.3707C161.211 33.5547 160.786 32.9226 160.221 32.4742C159.665 32.0259 158.979 31.8017 158.163 31.8017C157.356 31.8017 156.67 32.0214 156.105 32.4608C155.54 32.9002 155.105 33.5278 154.8 34.3438C154.504 35.1598 154.356 36.1326 154.356 37.2625ZM183.802 26.9328V31.7748H170.769V26.9328H183.802ZM173.499 21.9832H180.076V41.0957C180.076 41.4992 180.139 41.8265 180.265 42.0776C180.399 42.3197 180.592 42.4945 180.843 42.6021C181.094 42.7007 181.394 42.7501 181.744 42.7501C181.995 42.7501 182.26 42.7276 182.538 42.6828C182.825 42.629 183.04 42.5842 183.183 42.5483L184.178 47.2962C183.865 47.3858 183.421 47.4979 182.847 47.6324C182.282 47.7669 181.605 47.8521 180.816 47.888C179.274 47.9597 177.951 47.7804 176.848 47.35C175.754 46.9106 174.916 46.2291 174.333 45.3056C173.759 44.382 173.481 43.2208 173.499 41.822V21.9832ZM196.579 47.9821C194.409 47.9821 192.544 47.5383 190.984 46.6506C189.433 45.7539 188.236 44.5075 187.393 42.9115C186.559 41.3064 186.142 39.4458 186.142 37.3297C186.142 35.2046 186.559 33.344 187.393 31.7479C188.236 30.1429 189.433 28.8965 190.984 28.0088C192.544 27.1122 194.409 26.6638 196.579 26.6638C198.749 26.6638 200.61 27.1122 202.161 28.0088C203.721 28.8965 204.918 30.1429 205.752 31.7479C206.595 33.344 207.017 35.2046 207.017 37.3297C207.017 39.4458 206.595 41.3064 205.752 42.9115C204.918 44.5075 203.721 45.7539 202.161 46.6506C200.61 47.5383 198.749 47.9821 196.579 47.9821ZM196.62 43.0191C197.409 43.0191 198.077 42.777 198.624 42.2928C199.171 41.8086 199.588 41.1361 199.875 40.2753C200.171 39.4145 200.319 38.4192 200.319 37.2894C200.319 36.1416 200.171 35.1373 199.875 34.2765C199.588 33.4157 199.171 32.7432 198.624 32.259C198.077 31.7748 197.409 31.5327 196.62 31.5327C195.804 31.5327 195.113 31.7748 194.548 32.259C193.993 32.7432 193.567 33.4157 193.271 34.2765C192.984 35.1373 192.84 36.1416 192.84 37.2894C192.84 38.4192 192.984 39.4145 193.271 40.2753C193.567 41.1361 193.993 41.8086 194.548 42.2928C195.113 42.777 195.804 43.0191 196.62 43.0191ZM210.386 47.5921V20.0464H221.765C223.827 20.0464 225.607 20.4499 227.104 21.2569C228.611 22.055 229.772 23.1713 230.588 24.606C231.404 26.0317 231.812 27.6905 231.812 29.5825C231.812 31.4834 231.395 33.1467 230.561 34.5724C229.736 35.9892 228.557 37.0876 227.024 37.8677C225.49 38.6478 223.67 39.0379 221.563 39.0379H214.542V33.7923H220.325C221.33 33.7923 222.168 33.6175 222.841 33.2678C223.522 32.9181 224.038 32.4294 224.387 31.8017C224.737 31.1651 224.912 30.4254 224.912 29.5825C224.912 28.7306 224.737 27.9954 224.387 27.3767C224.038 26.749 223.522 26.2648 222.841 25.9241C222.159 25.5833 221.321 25.413 220.325 25.413H217.044V47.5921H210.386ZM235.094 47.5921V26.9328H241.482V30.6988H241.698C242.074 29.3359 242.688 28.3227 243.54 27.6591C244.392 26.9866 245.383 26.6504 246.513 26.6504C246.818 26.6504 247.131 26.6728 247.454 26.7176C247.777 26.7535 248.077 26.8118 248.355 26.8925V32.6087C248.041 32.5011 247.629 32.416 247.118 32.3532C246.616 32.2904 246.167 32.259 245.773 32.259C244.993 32.259 244.289 32.4339 243.661 32.7836C243.043 33.1243 242.554 33.604 242.195 34.2227C241.845 34.8325 241.671 35.5498 241.671 36.3747V47.5921H235.094ZM259.606 47.9821C257.436 47.9821 255.571 47.5383 254.011 46.6506C252.46 45.7539 251.263 44.5075 250.42 42.9115C249.586 41.3064 249.169 39.4458 249.169 37.3297C249.169 35.2046 249.586 33.344 250.42 31.7479C251.263 30.1429 252.46 28.8965 254.011 28.0088C255.571 27.1122 257.436 26.6638 259.606 26.6638C261.776 26.6638 263.637 27.1122 265.188 28.0088C266.748 28.8965 267.945 30.1429 268.779 31.7479C269.622 33.344 270.043 35.2046 270.043 37.3297C270.043 39.4458 269.622 41.3064 268.779 42.9115C267.945 44.5075 266.748 45.7539 265.188 46.6506C263.637 47.5383 261.776 47.9821 259.606 47.9821ZM259.647 43.0191C260.436 43.0191 261.104 42.777 261.651 42.2928C262.198 41.8086 262.615 41.1361 262.902 40.2753C263.197 39.4145 263.345 38.4192 263.345 37.2894C263.345 36.1416 263.197 35.1373 262.902 34.2765C262.615 33.4157 262.198 32.7432 261.651 32.259C261.104 31.7748 260.436 31.5327 259.647 31.5327C258.831 31.5327 258.14 31.7748 257.575 32.259C257.019 32.7432 256.593 33.4157 256.298 34.2765C256.011 35.1373 255.867 36.1416 255.867 37.2894C255.867 38.4192 256.011 39.4145 256.298 40.2753C256.593 41.1361 257.019 41.8086 257.575 42.2928C258.14 42.777 258.831 43.0191 259.647 43.0191ZM293.826 47.9956C291.764 47.9956 289.993 47.5428 288.514 46.6371C287.043 45.7315 285.909 44.4806 285.111 42.8846C284.322 41.2795 283.927 39.4324 283.927 37.3432C283.927 35.2449 284.331 33.3933 285.138 31.7883C285.945 30.1743 287.084 28.919 288.554 28.0223C290.034 27.1166 291.782 26.6638 293.8 26.6638C295.476 26.6638 296.96 26.9732 298.252 27.5919C299.552 28.2016 300.587 29.0669 301.358 30.1877C302.13 31.2996 302.569 32.5998 302.677 34.0882H298.023C297.835 33.0929 297.386 32.2635 296.678 31.6C295.978 30.9275 295.041 30.5912 293.867 30.5912C292.872 30.5912 291.997 30.8602 291.244 31.3982C290.491 31.9273 289.904 32.6894 289.482 33.6847C289.07 34.68 288.863 35.8726 288.863 37.2625C288.863 38.6702 289.07 39.8807 289.482 40.894C289.895 41.8982 290.473 42.6738 291.217 43.2208C291.97 43.7588 292.854 44.0278 293.867 44.0278C294.584 44.0278 295.225 43.8933 295.79 43.6243C296.364 43.3463 296.844 42.9473 297.229 42.4273C297.615 41.9072 297.879 41.275 298.023 40.5308H302.677C302.56 41.9924 302.13 43.2881 301.385 44.4179C300.641 45.5387 299.628 46.4174 298.346 47.0541C297.063 47.6817 295.557 47.9956 293.826 47.9956ZM312.62 48.009C311.31 48.009 310.131 47.7759 309.082 47.3096C308.042 46.8344 307.217 46.135 306.607 45.2114C306.007 44.2878 305.706 43.1491 305.706 41.7951C305.706 40.6294 305.921 39.6655 306.352 38.9034C306.782 38.1412 307.37 37.5315 308.114 37.0742C308.858 36.6168 309.696 36.2716 310.629 36.0385C311.57 35.7964 312.543 35.6215 313.548 35.5139C314.758 35.3884 315.74 35.2763 316.493 35.1777C317.246 35.0701 317.793 34.9087 318.134 34.6935C318.484 34.4693 318.659 34.1241 318.659 33.6578V33.5771C318.659 32.5639 318.358 31.7793 317.757 31.2234C317.157 30.6675 316.291 30.3895 315.162 30.3895C313.969 30.3895 313.023 30.6495 312.324 31.1696C311.633 31.6897 311.167 32.3039 310.925 33.0122L306.379 32.3666C306.737 31.1113 307.329 30.0622 308.154 29.2193C308.979 28.3675 309.988 27.7309 311.18 27.3094C312.373 26.879 313.691 26.6638 315.135 26.6638C316.13 26.6638 317.121 26.7804 318.107 27.0135C319.093 27.2467 319.995 27.6322 320.811 28.1702C321.627 28.6993 322.281 29.4211 322.774 30.3357C323.276 31.2503 323.528 32.3935 323.528 33.7654V47.5921H318.847V44.7541H318.685C318.39 45.328 317.973 45.866 317.435 46.3681C316.906 46.8613 316.238 47.2603 315.431 47.5652C314.633 47.8611 313.696 48.009 312.62 48.009ZM313.884 44.4313C314.861 44.4313 315.709 44.2385 316.426 43.853C317.143 43.4584 317.695 42.9384 318.08 42.2928C318.475 41.6472 318.672 40.9433 318.672 40.1811V37.7467C318.52 37.8722 318.26 37.9888 317.892 38.0964C317.533 38.204 317.13 38.2981 316.681 38.3788C316.233 38.4595 315.789 38.5312 315.35 38.594C314.911 38.6568 314.529 38.7106 314.207 38.7554C313.48 38.854 312.83 39.0154 312.256 39.2396C311.683 39.4638 311.23 39.7776 310.898 40.1811C310.566 40.5756 310.4 41.0867 310.4 41.7144C310.4 42.6111 310.728 43.2881 311.382 43.7454C312.037 44.2027 312.871 44.4313 313.884 44.4313ZM338.887 26.9328V30.6988H326.675V26.9328H338.887ZM329.728 47.5921V24.9826C329.728 23.5927 330.015 22.436 330.589 21.5125C331.172 20.5889 331.952 19.8985 332.929 19.4412C333.906 18.9839 334.991 18.7552 336.184 18.7552C337.027 18.7552 337.776 18.8225 338.43 18.957C339.085 19.0915 339.569 19.2125 339.883 19.3201L338.914 23.0861C338.708 23.0234 338.448 22.9606 338.134 22.8978C337.82 22.8261 337.471 22.7902 337.085 22.7902C336.179 22.7902 335.538 23.0099 335.162 23.4493C334.794 23.8797 334.61 24.4984 334.61 25.3054V47.5921H329.728ZM351.07 47.9956C348.998 47.9956 347.21 47.5652 345.703 46.7044C344.206 45.8346 343.054 44.6062 342.247 43.0191C341.44 41.423 341.036 39.5445 341.036 37.3835C341.036 35.2584 341.44 33.3933 342.247 31.7883C343.063 30.1743 344.201 28.919 345.663 28.0223C347.124 27.1166 348.842 26.6638 350.814 26.6638C352.088 26.6638 353.289 26.8701 354.419 27.2825C355.558 27.686 356.562 28.3137 357.432 29.1655C358.31 30.0174 359.001 31.1023 359.503 32.4204C360.005 33.7296 360.256 35.2898 360.256 37.1011V38.594H343.323V35.3122H355.589C355.58 34.3797 355.378 33.5502 354.984 32.8239C354.589 32.0887 354.038 31.5103 353.329 31.0889C352.63 30.6675 351.814 30.4567 350.881 30.4567C349.886 30.4567 349.012 30.6988 348.259 31.183C347.506 31.6583 346.918 32.2859 346.497 33.066C346.084 33.8372 345.874 34.6845 345.865 35.6081V38.473C345.865 39.6745 346.084 40.7057 346.524 41.5665C346.963 42.4183 347.577 43.0729 348.366 43.5302C349.155 43.9785 350.079 44.2027 351.137 44.2027C351.845 44.2027 352.487 44.104 353.06 43.9068C353.634 43.7005 354.132 43.4001 354.553 43.0056C354.975 42.6111 355.293 42.1224 355.508 41.5396L360.054 42.0507C359.767 43.2522 359.22 44.3013 358.413 45.198C357.615 46.0857 356.593 46.7761 355.347 47.2693C354.101 47.7535 352.675 47.9956 351.07 47.9956Z" fill="#1D3246"/>
<path d="M276.829 47.888C276.013 47.888 275.314 47.601 274.731 47.0272C274.148 46.4533 273.861 45.7539 273.87 44.929C273.861 44.122 274.148 43.4315 274.731 42.8577C275.314 42.2838 276.013 41.9969 276.829 41.9969C277.618 41.9969 278.304 42.2838 278.887 42.8577C279.479 43.4315 279.779 44.122 279.788 44.929C279.779 45.4759 279.636 45.9736 279.358 46.4219C279.089 46.8703 278.73 47.2289 278.282 47.4979C277.842 47.758 277.358 47.888 276.829 47.888Z" fill="#4EA42F"/>
<rect width="67.2909" height="67.2909" rx="8.72289" fill="#4EA42F"/>
<rect x="4.3272" y="4.32717" width="58.6365" height="58.6365" rx="7.16489" stroke="white" stroke-width="1.17759"/>
<g clip-path="url(#clip0_9_519)">
<path d="M28.7123 22.0575C30.3976 22.0097 32.0254 21.4391 33.3672 20.4257L33.3474 20.4397C34.8348 19.3827 36.606 18.7902 38.4344 18.7379H38.4486C39.3803 18.636 40.3229 18.6967 41.2336 18.9173L41.1785 18.9061C41.8696 19.1023 42.2433 19.3967 42.2998 19.7893C42.3846 20.1575 42.1869 20.4584 41.7067 20.6921C41.1525 20.951 40.553 21.1005 39.9413 21.1323H39.9286C39.2208 21.2814 38.483 21.1896 37.8342 20.8715L37.8526 20.8799C37.673 20.7931 37.5132 20.6709 37.3828 20.5208C37.2524 20.3706 37.1542 20.1956 37.0942 20.0066L37.0914 19.9968C36.3852 20.0528 35.9408 20.207 35.7582 20.4594C35.5905 20.66 35.5075 20.9172 35.5266 21.1771V21.1743C35.6113 21.5669 36.0632 21.9173 36.8823 22.2258C37.5659 22.4388 38.3511 22.5622 39.1646 22.5622C39.5685 22.5622 39.9668 22.5314 40.3537 22.4739L40.3099 22.4795H40.3551C41.6106 22.4795 42.7772 22.094 43.739 21.4379L43.7192 21.4505C43.9962 21.2373 44.2107 20.9545 44.3406 20.6314C44.4704 20.3083 44.5109 19.9565 44.4578 19.6126L44.4592 19.6238C44.2897 18.7827 43.5775 18.0757 42.3224 17.5028C40.6077 16.8701 38.7599 16.6772 36.9501 16.942L37.0094 16.935C34.0747 17.2117 32.2049 17.828 31.3999 18.7841C30.2908 19.864 28.7985 20.4677 27.245 20.465H27.1842H27.1871C26.5467 20.563 25.8923 20.5175 25.272 20.3318L25.3031 20.3402C25.1136 20.294 24.9389 20.2011 24.795 20.0703C24.6512 19.9395 24.5427 19.7749 24.4797 19.5916L24.4769 19.5832C24.4627 19.4362 24.4981 19.2886 24.5776 19.1637C24.6571 19.0389 24.7762 18.9438 24.9161 18.8935L24.9203 18.8921C25.272 18.7322 25.6816 18.6201 26.1109 18.578L26.1264 18.5766C26.5837 18.548 27.0429 18.571 27.4949 18.6453L27.4596 18.6411C27.8607 18.6916 28.2265 18.7883 28.5683 18.9285L28.5386 18.9187C28.694 18.8631 28.8322 18.7685 28.9397 18.6439L28.9411 18.6425C28.976 18.5981 29 18.5462 29.011 18.4909C29.022 18.4356 29.0199 18.3786 29.0047 18.3243V18.3271C28.9199 18.0187 28.6097 17.8014 28.074 17.6752C27.4248 17.5386 26.7581 17.5041 26.0982 17.5729L26.125 17.5701C24.6572 17.7103 23.8032 18.0327 23.5632 18.5374C23.3469 18.9081 23.2503 19.3357 23.2863 19.7626V19.7556C23.4102 20.1831 23.6369 20.5742 23.9469 20.8954C24.2569 21.2165 24.6409 21.458 25.0658 21.5991L25.0856 21.6047C25.8779 21.9328 26.7973 22.1234 27.7633 22.1234C28.0951 22.1234 28.4214 22.101 28.7406 22.0575L28.7038 22.0617L28.7123 22.0575ZM48.5689 28.6997C47.6651 28.9231 46.6911 29.1193 45.6469 29.2885C44.6028 29.4577 43.5022 29.596 42.345 29.7035C41.1879 29.8156 39.9602 29.9077 38.6618 29.9796C37.3635 30.0516 36.0227 30.0866 34.6396 30.0848C33.2001 30.0848 31.8311 30.0497 30.5327 29.9796C29.2344 29.9095 27.9996 29.8114 26.8283 29.6852C25.6571 29.5591 24.5494 29.4123 23.5052 29.245C22.4611 29.0777 21.4871 28.8936 20.5832 28.6927C19.2301 28.3801 17.9133 27.9286 16.6543 27.3455L16.7772 27.3973C16.0664 27.0986 15.4428 26.6271 14.9638 26.0263L14.9567 26.0165C15.1191 27.2319 15.3338 28.2918 15.612 29.3278L15.5711 29.1483C15.8959 30.389 16.2221 31.3913 16.5964 32.3699L16.5244 32.1554C16.0926 32.4137 15.686 32.7112 15.3098 33.0442L15.3169 33.0372C14.9311 33.3794 14.5745 33.7526 14.2506 34.1531L14.2365 34.1713C13.624 34.9224 13.1575 35.78 12.8609 36.7003L12.8454 36.7564C12.5617 37.6494 12.4328 38.5837 12.4641 39.5195V39.5069C12.5135 40.4406 12.7818 41.3027 13.2196 42.0555L13.2055 42.0275C13.6565 42.7925 14.2447 43.4691 14.9412 44.0238L14.9553 44.035C15.6358 44.5826 16.4295 44.9746 17.2799 45.1832L17.3209 45.1916C18.1995 45.3762 19.1068 45.381 19.9873 45.2056L19.9449 45.2126C20.3658 45.1453 20.7428 45.0346 21.0987 44.886L21.0662 44.8986C21.4476 44.7444 21.8213 44.6112 22.1876 44.499H22.1424C21.4132 44.4999 20.6902 44.3668 20.0099 44.1065L20.0508 44.1205C19.3354 43.8394 18.6666 43.4533 18.0666 42.9752L18.0807 42.9864C17.4171 42.4929 16.8431 41.8908 16.3831 41.206L16.3662 41.1794C15.9011 40.4821 15.6048 39.6876 15.5005 38.8578L15.4976 38.8312C15.326 38.0504 15.3284 37.2418 15.5047 36.462L15.4976 36.4984C15.6755 35.7318 15.9959 35.0049 16.4424 34.3549L16.4283 34.376C16.5413 34.2638 16.6472 34.1521 16.7461 34.0409C16.8449 33.9297 16.9509 33.818 17.0638 33.7059C17.3181 34.3507 17.593 34.9811 17.8886 35.597C18.1843 36.2129 18.5044 36.8157 18.849 37.4055C19.5259 38.4419 20.2175 39.4433 20.9236 40.4097C21.6297 41.3761 22.3349 42.3481 23.0392 43.3257C23.3047 43.8107 23.5688 44.3925 23.7919 44.9953L23.823 45.0906C24.0024 45.5631 24.1704 46.1407 24.2961 46.7337L24.3102 46.8136C24.7862 47.4528 25.3454 47.9968 25.981 48.4412L26.0036 48.4566C26.6363 48.894 27.3664 49.2515 28.1488 49.4926L28.2053 49.508C29.071 49.815 30.0978 50.0716 31.157 50.2314L31.2516 50.2426C32.2006 50.3898 33.2952 50.4739 34.4094 50.4739H34.6382C35.7711 50.4728 36.9021 50.3828 38.0206 50.2048L37.8978 50.2202C39.0233 50.0525 40.1315 49.786 41.2096 49.4239L41.074 49.4631C41.8285 49.2169 42.5433 48.8642 43.1966 48.4159L43.1684 48.4342C43.8114 47.9881 44.3715 47.4345 44.8236 46.7981L44.8377 46.7771H44.9648C45.0778 46.2724 45.2256 45.7121 45.4083 45.0962C45.6187 44.4009 45.8701 43.8023 46.1751 43.2359L46.1483 43.2892C46.8252 42.3088 47.5168 41.342 48.2229 40.3887C48.9291 39.4354 49.6347 38.427 50.3399 37.3634C51.2582 35.7187 52.0221 33.9936 52.6222 32.21L52.6886 31.9843C53.3166 30.1345 53.8056 28.2409 54.1517 26.3193L54.1912 26.0585C53.683 26.6704 53.0431 27.1614 52.3185 27.4955L52.2861 27.5095C51.1341 28.0552 49.9161 28.4515 48.6622 28.6885L48.5661 28.7039L48.5689 28.6997ZM20.5847 25.7978C21.4885 26.0212 22.4625 26.2174 23.5067 26.3866C24.5508 26.5557 25.6514 26.6941 26.8086 26.8015C27.9657 26.9137 29.1864 26.9978 30.4706 27.0539C31.7548 27.11 33.0998 27.138 34.5055 27.138C35.9451 27.138 37.307 27.11 38.5912 27.0539C39.8754 26.9978 41.0961 26.9137 42.2532 26.8015C43.4104 26.6894 44.5039 26.5427 45.534 26.3613C46.564 26.18 47.5446 25.9908 48.4757 25.7936C50.006 25.4688 51.4824 24.9307 52.8609 24.1954L52.7733 24.2389C53.7186 23.6791 54.1912 23.1188 54.1912 22.558C54.1801 22.3273 54.12 22.1015 54.0148 21.8954C53.9097 21.6893 53.7619 21.5076 53.5811 21.3622L53.5783 21.3594C53.0698 20.924 52.4886 20.58 51.861 20.343L51.8214 20.3304C51.9909 20.4468 52.1307 20.594 52.2352 20.765L52.2395 20.7706C52.3491 20.94 52.4079 21.137 52.4089 21.3384C52.4089 21.9272 51.9716 22.4594 51.0969 22.9351C49.9614 23.4987 48.6438 23.9487 47.2612 24.2207L47.1609 24.2375C45.5236 24.5739 43.6608 24.8613 41.5725 25.0996C39.5812 25.3282 37.2735 25.4585 34.9348 25.4585L34.6142 25.4571H34.6312H34.401C32.0594 25.4571 29.7461 25.3352 27.4681 25.0968L27.752 25.1207C25.7633 24.9287 23.7869 24.6278 21.8317 24.2193L22.1848 24.2809C20.8148 23.9832 19.4878 23.5165 18.2346 22.8917L18.3307 22.9351C17.456 22.4594 17.0187 21.9412 17.0187 21.3804V21.379C17.0187 21.1169 17.0893 20.8715 17.2136 20.6598L17.2093 20.6669C17.3887 20.3921 17.6217 20.1664 17.8957 19.9996L17.9056 19.9939C17.0345 20.3098 16.2018 20.7212 15.4228 21.2206L15.4722 21.1912C14.9906 21.4715 14.6672 21.9748 14.6474 22.5552V22.558C14.7039 23.1468 15.2189 23.7211 16.1925 24.2809C17.4593 24.9454 18.9266 25.4711 20.4731 25.7824L20.579 25.8006L20.5847 25.7978Z" fill="white"/>
</g>
<defs>
<clipPath id="clip0_9_519">
<rect width="42.3683" height="33.6454" fill="white" transform="translate(12.4613 16.8227)"/>
</clipPath>
</defs>
</svg>
