<svg width="27" height="27" viewBox="0 0 27 27" fill="none" xmlns="http://www.w3.org/2000/svg">
<path fill-rule="evenodd" clip-rule="evenodd" d="M13.5 27C20.9558 27 27 20.9558 27 13.5C27 6.04416 20.9558 0 13.5 0C6.04416 0 0 6.04416 0 13.5C0 20.9558 6.04416 27 13.5 27Z" fill="white"/>
<path d="M17.0391 11.8438V10.2266C17.0391 10.0156 17.1094 9.80469 17.2852 9.62891C17.4258 9.48828 17.6367 9.38281 17.8828 9.38281C18.0938 9.38281 18.3047 9.48828 18.4805 9.62891L21.5039 12.6523C21.6445 12.8281 21.75 13.0391 21.75 13.25C21.75 13.4961 21.6445 13.707 21.5039 13.8477L18.4805 16.8711C18.3047 17.0469 18.0938 17.1172 17.8828 17.1172C17.6367 17.1172 17.4258 17.0469 17.2852 16.8711C17.1094 16.7305 17.0391 16.5195 17.0391 16.2734V14.6562H6.42188C6.28125 14.6562 6.17578 14.6211 6.10547 14.5508C6.03516 14.4805 6 14.375 6 14.2344V12.2656C6 12.1602 6.03516 12.0547 6.10547 11.9844C6.17578 11.9141 6.28125 11.8438 6.42188 11.8438H17.0391Z" fill="#797979"/>
</svg>
