<svg width="226" height="42" viewBox="0 0 226 42" fill="none" xmlns="http://www.w3.org/2000/svg">
<path d="M65.5187 18.6473H61.3212C61.2653 18.2164 61.1505 17.8274 60.977 17.4804C60.8035 17.1334 60.5741 16.8368 60.2887 16.5906C60.0032 16.3443 59.6646 16.1568 59.2729 16.0281C58.8867 15.8938 58.4586 15.8266 57.9884 15.8266C57.1546 15.8266 56.4354 16.0309 55.831 16.4395C55.2321 16.848 54.7704 17.4385 54.4458 18.2108C54.1268 18.9831 53.9673 19.9178 53.9673 21.0147C53.9673 22.1564 54.1296 23.1134 54.4542 23.8858C54.7844 24.6525 55.2461 25.2317 55.8393 25.6235C56.4382 26.0097 57.1462 26.2027 57.9633 26.2027C58.4222 26.2027 58.8391 26.144 59.2141 26.0265C59.5947 25.9089 59.9277 25.7382 60.2131 25.5144C60.5041 25.2849 60.742 25.0079 60.9267 24.6833C61.117 24.3531 61.2485 23.9809 61.3212 23.5667L65.5187 23.5919C65.4459 24.3531 65.2249 25.103 64.8555 25.8418C64.4917 26.5805 63.9908 27.2549 63.3528 27.8649C62.7148 28.4694 61.9369 28.9507 61.019 29.3089C60.1068 29.6671 59.0602 29.8461 57.8793 29.8461C56.3235 29.8461 54.9299 29.5047 53.6986 28.822C52.473 28.1336 51.5048 27.1318 50.794 25.8166C50.0832 24.5014 49.7279 22.9007 49.7279 21.0147C49.7279 19.123 50.0888 17.5196 50.8108 16.2044C51.5328 14.8892 52.5094 13.8902 53.7406 13.2074C54.9719 12.5246 56.3514 12.1832 57.8793 12.1832C58.9203 12.1832 59.8829 12.3288 60.7672 12.6198C61.6514 12.9052 62.4294 13.3249 63.1009 13.879C63.7725 14.4275 64.3182 15.1019 64.738 15.9022C65.1577 16.7025 65.4179 17.6176 65.5187 18.6473ZM67.8965 29.6111V16.7165H71.8841V19.0671H72.0184C72.2535 18.2164 72.6369 17.584 73.1686 17.1698C73.7002 16.7501 74.3187 16.5402 75.0238 16.5402C75.2141 16.5402 75.41 16.5542 75.6115 16.5822C75.8129 16.6046 76.0004 16.6409 76.1739 16.6913V20.2591C75.978 20.192 75.7206 20.1388 75.4016 20.0996C75.0882 20.0605 74.8084 20.0409 74.5621 20.0409C74.0752 20.0409 73.6359 20.15 73.2441 20.3683C72.8579 20.581 72.5529 20.8804 72.3291 21.2665C72.1108 21.6471 72.0017 22.0948 72.0017 22.6097V29.6111H67.8965ZM80.7492 34.4466C80.2567 34.4466 79.7921 34.4074 79.3556 34.329C78.9191 34.2563 78.5441 34.1583 78.2307 34.0352L79.1373 31.055C79.5403 31.1893 79.9041 31.2677 80.2287 31.2901C80.5589 31.3125 80.8415 31.2593 81.0766 31.1306C81.3172 31.0074 81.5019 30.7864 81.6306 30.4674L81.7901 30.0812L77.2065 16.7165H81.5047L83.8805 25.9173H84.0148L86.4241 16.7165H90.7475L85.8868 30.8451C85.6518 31.5503 85.3188 32.1715 84.8878 32.7088C84.4625 33.2517 83.9112 33.677 83.2341 33.9848C82.5625 34.2926 81.7342 34.4466 80.7492 34.4466ZM92.3215 34.4466V16.7165H96.3847V18.9244H96.5106C96.6785 18.5326 96.9164 18.1548 97.2242 17.791C97.5376 17.4273 97.9349 17.1306 98.4163 16.9012C98.9032 16.6661 99.4852 16.5486 100.162 16.5486C101.058 16.5486 101.895 16.7837 102.672 17.2538C103.456 17.7239 104.088 18.4486 104.57 19.4281C105.051 20.4075 105.292 21.6555 105.292 23.1722C105.292 24.6329 105.059 25.8558 104.595 26.8408C104.136 27.8258 103.515 28.5645 102.731 29.057C101.953 29.5495 101.089 29.7958 100.137 29.7958C99.488 29.7958 98.9255 29.6894 98.4498 29.4768C97.9741 29.2641 97.574 28.9843 97.2494 28.6373C96.9304 28.2903 96.6841 27.9181 96.5106 27.5208H96.4267V34.4466H92.3215ZM96.3427 23.1638C96.3427 23.8578 96.4351 24.4622 96.6197 24.9771C96.81 25.492 97.0815 25.8921 97.4341 26.1776C97.7922 26.4574 98.2204 26.5973 98.7185 26.5973C99.2222 26.5973 99.6503 26.4574 100.003 26.1776C100.355 25.8921 100.621 25.492 100.8 24.9771C100.985 24.4622 101.077 23.8578 101.077 23.1638C101.077 22.4698 100.985 21.8682 100.8 21.3589C100.621 20.8496 100.355 20.455 100.003 20.1752C99.6559 19.8954 99.2278 19.7555 98.7185 19.7555C98.2148 19.7555 97.7866 19.8926 97.4341 20.1668C97.0815 20.441 96.81 20.8328 96.6197 21.3421C96.4351 21.8514 96.3427 22.4586 96.3427 23.1638ZM114.721 16.7165V19.7387H106.587V16.7165H114.721ZM108.291 13.6272H112.396V25.5563C112.396 25.8082 112.435 26.0125 112.513 26.1692C112.597 26.3203 112.718 26.4294 112.874 26.4966C113.031 26.5581 113.219 26.5889 113.437 26.5889C113.594 26.5889 113.759 26.5749 113.932 26.5469C114.111 26.5134 114.246 26.4854 114.335 26.463L114.956 29.4264C114.76 29.4824 114.483 29.5523 114.125 29.6363C113.773 29.7202 113.35 29.7734 112.858 29.7958C111.895 29.8405 111.069 29.7286 110.381 29.46C109.698 29.1857 109.175 28.7604 108.811 28.1839C108.453 27.6075 108.28 26.8827 108.291 26.0097V13.6272ZM122.696 29.8545C121.342 29.8545 120.178 29.5775 119.204 29.0234C118.236 28.4638 117.489 27.6859 116.963 26.6897C116.442 25.6879 116.182 24.5266 116.182 23.2058C116.182 21.8794 116.442 20.7181 116.963 19.7219C117.489 18.7201 118.236 17.9422 119.204 17.3881C120.178 16.8284 121.342 16.5486 122.696 16.5486C124.051 16.5486 125.212 16.8284 126.18 17.3881C127.154 17.9422 127.901 18.7201 128.422 19.7219C128.948 20.7181 129.211 21.8794 129.211 23.2058C129.211 24.5266 128.948 25.6879 128.422 26.6897C127.901 27.6859 127.154 28.4638 126.18 29.0234C125.212 29.5775 124.051 29.8545 122.696 29.8545ZM122.722 26.7568C123.214 26.7568 123.631 26.6057 123.972 26.3035C124.314 26.0013 124.574 25.5815 124.753 25.0443C124.938 24.507 125.03 23.8858 125.03 23.1806C125.03 22.4642 124.938 21.8374 124.753 21.3001C124.574 20.7628 124.314 20.3431 123.972 20.0409C123.631 19.7387 123.214 19.5876 122.722 19.5876C122.212 19.5876 121.781 19.7387 121.429 20.0409C121.082 20.3431 120.816 20.7628 120.631 21.3001C120.452 21.8374 120.363 22.4642 120.363 23.1806C120.363 23.8858 120.452 24.507 120.631 25.0443C120.816 25.5815 121.082 26.0013 121.429 26.3035C121.781 26.6057 122.212 26.7568 122.722 26.7568ZM131.314 29.6111V12.4183H138.416C139.703 12.4183 140.814 12.6701 141.749 13.1738C142.689 13.6719 143.414 14.3687 143.923 15.2642C144.432 16.154 144.687 17.1894 144.687 18.3703C144.687 19.5568 144.427 20.5949 143.906 21.4848C143.391 22.3691 142.655 23.0547 141.698 23.5416C140.741 24.0285 139.605 24.2719 138.29 24.2719H133.908V20.9979H137.518C138.144 20.9979 138.668 20.8888 139.088 20.6705C139.513 20.4522 139.835 20.1472 140.053 19.7555C140.271 19.3581 140.38 18.8964 140.38 18.3703C140.38 17.8386 140.271 17.3797 140.053 16.9935C139.835 16.6018 139.513 16.2995 139.088 16.0869C138.662 15.8742 138.139 15.7679 137.518 15.7679H135.469V29.6111H131.314ZM146.735 29.6111V16.7165H150.723V19.0671H150.857C151.092 18.2164 151.476 17.584 152.007 17.1698C152.539 16.7501 153.157 16.5402 153.863 16.5402C154.053 16.5402 154.249 16.5542 154.45 16.5822C154.652 16.6046 154.839 16.6409 155.013 16.6913V20.2591C154.817 20.192 154.559 20.1388 154.24 20.0996C153.927 20.0605 153.647 20.0409 153.401 20.0409C152.914 20.0409 152.475 20.15 152.083 20.3683C151.697 20.581 151.392 20.8804 151.168 21.2665C150.95 21.6471 150.84 22.0948 150.84 22.6097V29.6111H146.735ZM162.035 29.8545C160.681 29.8545 159.517 29.5775 158.543 29.0234C157.575 28.4638 156.827 27.6859 156.301 26.6897C155.781 25.6879 155.521 24.5266 155.521 23.2058C155.521 21.8794 155.781 20.7181 156.301 19.7219C156.827 18.7201 157.575 17.9422 158.543 17.3881C159.517 16.8284 160.681 16.5486 162.035 16.5486C163.389 16.5486 164.551 16.8284 165.519 17.3881C166.493 17.9422 167.24 18.7201 167.76 19.7219C168.286 20.7181 168.549 21.8794 168.549 23.2058C168.549 24.5266 168.286 25.6879 167.76 26.6897C167.24 27.6859 166.493 28.4638 165.519 29.0234C164.551 29.5775 163.389 29.8545 162.035 29.8545ZM162.06 26.7568C162.553 26.7568 162.97 26.6057 163.311 26.3035C163.652 26.0013 163.913 25.5815 164.092 25.0443C164.276 24.507 164.369 23.8858 164.369 23.1806C164.369 22.4642 164.276 21.8374 164.092 21.3001C163.913 20.7628 163.652 20.3431 163.311 20.0409C162.97 19.7387 162.553 19.5876 162.06 19.5876C161.551 19.5876 161.12 19.7387 160.767 20.0409C160.42 20.3431 160.155 20.7628 159.97 21.3001C159.791 21.8374 159.701 22.4642 159.701 23.1806C159.701 23.8858 159.791 24.507 159.97 25.0443C160.155 25.5815 160.42 26.0013 160.767 26.3035C161.12 26.6057 161.551 26.7568 162.06 26.7568ZM183.394 29.8629C182.107 29.8629 181.001 29.5803 180.078 29.015C179.16 28.4498 178.452 27.6691 177.954 26.6729C177.461 25.6711 177.215 24.5182 177.215 23.2142C177.215 21.9046 177.467 20.7489 177.971 19.7471C178.474 18.7397 179.185 17.9561 180.103 17.3965C181.026 16.8312 182.118 16.5486 183.377 16.5486C184.424 16.5486 185.35 16.7417 186.156 17.1278C186.967 17.5084 187.614 18.0485 188.095 18.7481C188.576 19.442 188.85 20.2536 188.918 21.1826H186.013C185.895 20.5614 185.616 20.0437 185.173 19.6295C184.737 19.2098 184.152 18.9999 183.419 18.9999C182.798 18.9999 182.252 19.1678 181.782 19.5036C181.312 19.8338 180.945 20.3095 180.682 20.9307C180.425 21.552 180.296 22.2963 180.296 23.1638C180.296 24.0425 180.425 24.798 180.682 25.4304C180.94 26.0572 181.301 26.5413 181.765 26.8827C182.235 27.2185 182.787 27.3864 183.419 27.3864C183.867 27.3864 184.267 27.3025 184.619 27.1346C184.978 26.9611 185.277 26.712 185.518 26.3874C185.758 26.0628 185.923 25.6683 186.013 25.2038H188.918C188.845 26.116 188.576 26.9247 188.112 27.6299C187.647 28.3295 187.015 28.8779 186.214 29.2753C185.414 29.6671 184.474 29.8629 183.394 29.8629ZM195.124 29.8713C194.306 29.8713 193.571 29.7258 192.916 29.4348C192.266 29.1382 191.752 28.7016 191.371 28.1252C190.996 27.5487 190.809 26.838 190.809 25.9929C190.809 25.2653 190.943 24.6637 191.212 24.188C191.48 23.7123 191.847 23.3317 192.311 23.0463C192.776 22.7608 193.299 22.5454 193.881 22.3999C194.469 22.2487 195.076 22.1396 195.703 22.0725C196.458 21.9941 197.071 21.9241 197.541 21.8626C198.011 21.7954 198.353 21.6947 198.565 21.5604C198.784 21.4204 198.893 21.205 198.893 20.914V20.8636C198.893 20.2312 198.705 19.7415 198.33 19.3945C197.955 19.0475 197.415 18.874 196.71 18.874C195.966 18.874 195.375 19.0363 194.939 19.3609C194.508 19.6855 194.217 20.0689 194.066 20.511L191.228 20.108C191.452 19.3245 191.822 18.6697 192.336 18.1436C192.851 17.612 193.481 17.2146 194.225 16.9516C194.97 16.6829 195.792 16.5486 196.693 16.5486C197.315 16.5486 197.933 16.6214 198.549 16.7669C199.164 16.9124 199.727 17.153 200.236 17.4888C200.745 17.819 201.154 18.2696 201.462 18.8404C201.775 19.4113 201.932 20.1248 201.932 20.9811V29.6111H199.01V27.8398H198.91C198.725 28.1979 198.465 28.5337 198.129 28.8471C197.799 29.155 197.382 29.404 196.878 29.5943C196.38 29.779 195.795 29.8713 195.124 29.8713ZM195.913 27.6383C196.523 27.6383 197.052 27.518 197.499 27.2773C197.947 27.031 198.291 26.7064 198.532 26.3035C198.778 25.9005 198.901 25.4612 198.901 24.9855V23.466C198.806 23.5444 198.644 23.6171 198.414 23.6843C198.191 23.7514 197.939 23.8102 197.659 23.8606C197.379 23.9109 197.102 23.9557 196.828 23.9949C196.554 24.0341 196.316 24.0676 196.114 24.0956C195.661 24.1572 195.255 24.2579 194.897 24.3978C194.539 24.5378 194.256 24.7336 194.049 24.9855C193.842 25.2317 193.738 25.5507 193.738 25.9425C193.738 26.5022 193.943 26.9247 194.351 27.2101C194.76 27.4956 195.28 27.6383 195.913 27.6383ZM211.519 16.7165V19.0671H203.896V16.7165H211.519ZM205.802 29.6111V15.4992C205.802 14.6318 205.981 13.9098 206.339 13.3333C206.703 12.7569 207.19 12.326 207.8 12.0405C208.41 11.7551 209.087 11.6124 209.831 11.6124C210.358 11.6124 210.825 11.6544 211.233 11.7383C211.642 11.8223 211.944 11.8978 212.14 11.965L211.536 14.3156C211.407 14.2764 211.245 14.2372 211.049 14.198C210.853 14.1532 210.635 14.1309 210.394 14.1309C209.829 14.1309 209.428 14.268 209.193 14.5422C208.964 14.8108 208.849 15.197 208.849 15.7007V29.6111H205.802ZM219.123 29.8629C217.83 29.8629 216.713 29.5943 215.773 29.057C214.838 28.5141 214.119 27.7474 213.615 26.7568C213.112 25.7606 212.86 24.5881 212.86 23.2393C212.86 21.9129 213.112 20.7489 213.615 19.7471C214.125 18.7397 214.836 17.9561 215.748 17.3965C216.66 16.8312 217.732 16.5486 218.963 16.5486C219.758 16.5486 220.508 16.6773 221.213 16.9348C221.924 17.1866 222.55 17.5784 223.093 18.1101C223.642 18.6417 224.073 19.3189 224.386 20.1416C224.7 20.9587 224.856 21.9325 224.856 23.0631V23.9949H214.287V21.9465H221.943C221.938 21.3645 221.812 20.8468 221.565 20.3935C221.319 19.9345 220.975 19.5736 220.533 19.3105C220.096 19.0475 219.587 18.916 219.005 18.916C218.384 18.916 217.838 19.0671 217.368 19.3693C216.898 19.6659 216.531 20.0577 216.268 20.5446C216.011 21.0259 215.879 21.5548 215.874 22.1312V23.9193C215.874 24.6693 216.011 25.3129 216.285 25.8502C216.559 26.3818 216.943 26.7904 217.435 27.0758C217.928 27.3557 218.504 27.4956 219.164 27.4956C219.607 27.4956 220.007 27.434 220.365 27.3109C220.723 27.1822 221.034 26.9947 221.297 26.7484C221.56 26.5022 221.759 26.1972 221.893 25.8334L224.73 26.1524C224.551 26.9023 224.21 27.5571 223.706 28.1168C223.208 28.6709 222.57 29.1018 221.792 29.4096C221.014 29.7118 220.124 29.8629 219.123 29.8629Z" fill="white"/>
<path d="M172.785 29.7958C172.275 29.7958 171.839 29.6167 171.475 29.2585C171.111 28.9003 170.932 28.4638 170.938 27.9489C170.932 27.4452 171.111 27.0143 171.475 26.6561C171.839 26.2979 172.275 26.1188 172.785 26.1188C173.277 26.1188 173.705 26.2979 174.069 26.6561C174.438 27.0143 174.626 27.4452 174.632 27.9489C174.626 28.2903 174.536 28.6009 174.363 28.8807C174.195 29.1606 173.971 29.3844 173.691 29.5523C173.417 29.7146 173.115 29.7958 172.785 29.7958Z" fill="#4EA42F"/>
<rect width="42" height="42" rx="5.44444" fill="#4EA42F"/>
<rect x="2.701" y="2.70075" width="36.5983" height="36.5983" rx="4.47201" stroke="white" stroke-width="0.735"/>
<g clip-path="url(#clip0_57_194)">
<path d="M17.9212 13.7673C18.973 13.7375 19.9891 13.3813 20.8265 12.7488L20.8142 12.7576C21.7425 12.0978 22.848 11.728 23.9893 11.6953H23.9981C24.5797 11.6317 25.168 11.6696 25.7364 11.8073L25.702 11.8003C26.1333 11.9228 26.3666 12.1066 26.4019 12.3516C26.4548 12.5814 26.3314 12.7692 26.0317 12.9151C25.6858 13.0767 25.3116 13.17 24.9298 13.1898H24.9219C24.4801 13.2829 24.0196 13.2256 23.6147 13.0271L23.6261 13.0323C23.514 12.9781 23.4143 12.9019 23.3329 12.8081C23.2515 12.7144 23.1902 12.6052 23.1528 12.4872L23.151 12.4811C22.7103 12.5161 22.4329 12.6123 22.3189 12.7698C22.2142 12.895 22.1624 13.0556 22.1743 13.2178V13.2161C22.2272 13.4611 22.5093 13.6798 23.0205 13.8723C23.4472 14.0053 23.9373 14.0823 24.445 14.0823C24.6971 14.0823 24.9457 14.0631 25.1872 14.0272L25.1599 14.0307H25.1881C25.9717 14.0307 26.6998 13.7901 27.3001 13.3806L27.2878 13.3884C27.4607 13.2554 27.5946 13.0789 27.6756 12.8772C27.7567 12.6755 27.7819 12.456 27.7488 12.2413L27.7497 12.2483C27.6439 11.7233 27.1993 11.282 26.416 10.9244C25.3458 10.5295 24.1924 10.4091 23.0628 10.5744L23.0999 10.5701C21.2681 10.7427 20.1011 11.1274 19.5986 11.7242C18.9064 12.3982 17.9749 12.775 17.0053 12.7733H16.9674H16.9692C16.5695 12.8345 16.1611 12.8061 15.7739 12.6902L15.7933 12.6954C15.675 12.6666 15.566 12.6086 15.4762 12.527C15.3864 12.4454 15.3187 12.3426 15.2794 12.2282L15.2776 12.2229C15.2687 12.1312 15.2908 12.0391 15.3405 11.9611C15.3901 11.8832 15.4644 11.8239 15.5517 11.7924L15.5544 11.7916C15.7739 11.6918 16.0295 11.6218 16.2975 11.5956L16.3072 11.5947C16.5926 11.5768 16.8792 11.5912 17.1613 11.6376L17.1393 11.6349C17.3896 11.6664 17.6179 11.7268 17.8313 11.8143L17.8127 11.8082C17.9097 11.7735 17.996 11.7144 18.0631 11.6367L18.064 11.6358C18.0858 11.6081 18.1007 11.5757 18.1076 11.5412C18.1145 11.5067 18.1131 11.4711 18.1036 11.4372V11.4389C18.0507 11.2464 17.8571 11.1108 17.5227 11.0321C17.1176 10.9468 16.7014 10.9253 16.2895 10.9682L16.3063 10.9664C15.3901 11.0539 14.8571 11.2552 14.7073 11.5702C14.5723 11.8016 14.512 12.0685 14.5345 12.3349V12.3306C14.6118 12.5974 14.7533 12.8415 14.9468 13.0419C15.1403 13.2424 15.38 13.3931 15.6452 13.4812L15.6575 13.4847C16.152 13.6894 16.7259 13.8084 17.3288 13.8084C17.536 13.8084 17.7396 13.7944 17.9388 13.7673L17.9159 13.7699L17.9212 13.7673ZM30.3148 17.9131C29.7506 18.0525 29.1427 18.175 28.491 18.2806C27.8393 18.3862 27.1523 18.4725 26.4301 18.5396C25.7079 18.6096 24.9416 18.667 24.1312 18.7119C23.3208 18.7569 22.484 18.7787 21.6207 18.7776C20.7222 18.7776 19.8678 18.7557 19.0574 18.7119C18.247 18.6682 17.4763 18.6069 16.7453 18.5282C16.0142 18.4494 15.3229 18.3579 14.6711 18.2534C14.0194 18.149 13.4115 18.0341 12.8474 17.9087C12.0028 17.7136 11.1809 17.4318 10.3951 17.0678L10.4718 17.1002C10.0281 16.9137 9.63891 16.6194 9.33994 16.2444L9.33553 16.2383C9.4369 16.9969 9.57089 17.6584 9.74454 18.3051L9.71898 18.1931C9.92172 18.9674 10.1253 19.5931 10.3589 20.2038L10.314 20.0699C10.0445 20.2312 9.79074 20.4169 9.5559 20.6247L9.56031 20.6203C9.31956 20.8339 9.09696 21.0669 8.89479 21.3168L8.88598 21.3282C8.50369 21.797 8.21256 22.3323 8.02742 22.9067L8.01772 22.9417C7.84067 23.4991 7.76019 24.0822 7.77972 24.6663V24.6584C7.81057 25.2412 7.97805 25.7793 8.25131 26.2492L8.2425 26.2317C8.52396 26.7092 8.89113 27.1315 9.32584 27.4777L9.33465 27.4847C9.75939 27.8265 10.2548 28.0711 10.7856 28.2013L10.8111 28.2066C11.3595 28.3218 11.9258 28.3248 12.4754 28.2153L12.4489 28.2197C12.7116 28.1777 12.947 28.1086 13.1691 28.0158L13.1488 28.0237C13.3868 27.9274 13.6201 27.8443 13.8487 27.7743H13.8205C13.3654 27.7749 12.9141 27.6918 12.4895 27.5293L12.515 27.5381C12.0685 27.3626 11.651 27.1216 11.2766 26.8232L11.2854 26.8302C10.8712 26.5222 10.5129 26.1464 10.2258 25.7189L10.2153 25.7023C9.92497 25.2672 9.74003 24.7712 9.6749 24.2533L9.67314 24.2367C9.56599 23.7494 9.5675 23.2447 9.67755 22.7579L9.67314 22.7807C9.78415 22.3022 9.98414 21.8485 10.2629 21.4428L10.254 21.4559C10.3246 21.3859 10.3907 21.3162 10.4524 21.2468C10.5141 21.1774 10.5802 21.1077 10.6507 21.0377C10.8094 21.4402 10.981 21.8337 11.1655 22.2181C11.35 22.6025 11.5498 22.9787 11.7649 23.3468C12.1874 23.9937 12.6191 24.6188 13.0598 25.2219C13.5005 25.8251 13.9407 26.4318 14.3803 27.0419C14.546 27.3447 14.7108 27.7078 14.8501 28.0841L14.8695 28.1436C14.9814 28.4384 15.0863 28.7989 15.1648 29.1691L15.1736 29.2189C15.4706 29.6179 15.8197 29.9575 16.2164 30.2348L16.2305 30.2445C16.6254 30.5175 17.0811 30.7406 17.5695 30.8911L17.6047 30.9007C18.1451 31.0923 18.7859 31.2524 19.447 31.3522L19.5061 31.3592C20.0984 31.4511 20.7816 31.5036 21.4771 31.5036H21.6199C22.3269 31.5029 23.0328 31.4467 23.731 31.3356L23.6543 31.3452C24.3568 31.2406 25.0485 31.0742 25.7214 30.8482L25.6368 30.8727C26.1077 30.719 26.5539 30.4989 26.9616 30.2191L26.944 30.2304C27.3454 29.952 27.6949 29.6065 27.9771 29.2093L27.9859 29.1962H28.0653C28.1358 28.8812 28.228 28.5315 28.342 28.1471C28.4734 27.7131 28.6303 27.3394 28.8207 26.9859L28.8039 27.0192C29.2265 26.4073 29.6581 25.8038 30.0988 25.2088C30.5396 24.6138 30.98 23.9844 31.4202 23.3206C31.9933 22.294 32.4701 21.2173 32.8446 20.1041L32.8861 19.9632C33.2781 18.8086 33.5833 17.6267 33.7993 16.4273L33.824 16.2646C33.5067 16.6465 33.1073 16.9529 32.6551 17.1614L32.6349 17.1702C31.9158 17.5108 31.1556 17.7582 30.373 17.9061L30.313 17.9157L30.3148 17.9131ZM12.8482 16.1018C13.4124 16.2412 14.0203 16.3637 14.672 16.4693C15.3237 16.5749 16.0107 16.6612 16.7329 16.7283C17.4552 16.7983 18.217 16.8508 19.0186 16.8858C19.8202 16.9208 20.6596 16.9383 21.537 16.9383C22.4355 16.9383 23.2856 16.9208 24.0871 16.8858C24.8887 16.8508 25.6506 16.7983 26.3728 16.7283C27.095 16.6583 27.7776 16.5667 28.4205 16.4536C29.0634 16.3404 29.6754 16.2223 30.2566 16.0992C31.2118 15.8965 32.1332 15.5606 32.9936 15.1017L32.939 15.1288C33.529 14.7794 33.824 14.4297 33.824 14.0797C33.817 13.9357 33.7795 13.7948 33.7139 13.6661C33.6483 13.5375 33.556 13.4241 33.4432 13.3333L33.4414 13.3316C33.124 13.0598 32.7613 12.8451 32.3695 12.6972L32.3448 12.6893C32.4506 12.7619 32.5379 12.8538 32.6031 12.9606L32.6058 12.9641C32.6742 13.0698 32.7109 13.1927 32.7115 13.3184C32.7115 13.6859 32.4386 14.0182 31.8926 14.3151C31.1839 14.6668 30.3615 14.9477 29.4985 15.1174L29.436 15.1279C28.414 15.3379 27.2514 15.5173 25.9479 15.6661C24.705 15.8087 23.2647 15.8901 21.805 15.8901L21.6049 15.8892H21.6155H21.4718C20.0103 15.8892 18.5664 15.8131 17.1446 15.6643L17.3218 15.6792C16.0805 15.5594 14.8469 15.3715 13.6266 15.1166L13.847 15.1551C12.9919 14.9693 12.1636 14.678 11.3815 14.2879L11.4414 14.3151C10.8955 14.0182 10.6225 13.6947 10.6225 13.3447V13.3438C10.6225 13.1802 10.6666 13.0271 10.7441 12.8949L10.7415 12.8993C10.8534 12.7278 10.9989 12.5869 11.1699 12.4828L11.1761 12.4793C10.6324 12.6765 10.1126 12.9333 9.62642 13.2449L9.65727 13.2266C9.35669 13.4016 9.15483 13.7157 9.14249 14.0779V14.0797C9.17775 14.4472 9.4992 14.8057 10.1068 15.1551C10.8975 15.5698 11.8134 15.8979 12.7786 16.0922L12.8447 16.1036L12.8482 16.1018Z" fill="white"/>
</g>
<defs>
<clipPath id="clip0_57_194">
<rect width="26.4444" height="21" fill="white" transform="translate(7.77783 10.5)"/>
</clipPath>
</defs>
</svg>
