<svg width="40" height="40" viewBox="0 0 40 40" fill="none" xmlns="http://www.w3.org/2000/svg">
<path fill-rule="evenodd" clip-rule="evenodd" d="M20 40C31.0457 40 40 31.0457 40 20C40 8.9543 31.0457 0 20 0C8.9543 0 0 8.9543 0 20C0 31.0457 8.9543 40 20 40Z" fill="#4EA42F"/>
<path d="M26.625 19.5625C26.9297 19.5625 27.1875 19.6797 27.3984 19.9141C27.6328 20.125 27.75 20.3828 27.75 20.6875V21.8125C27.75 22.1172 27.6328 22.3867 27.3984 22.6211C27.1875 22.832 26.9297 22.9375 26.625 22.9375H21.5625V28C21.5625 28.3047 21.4453 28.5625 21.2109 28.7734C21 29.0078 20.7422 29.125 20.4375 29.125H19.3125C19.0078 29.125 18.7383 29.0078 18.5039 28.7734C18.293 28.5625 18.1875 28.3047 18.1875 28V22.9375H13.125C12.8203 22.9375 12.5508 22.832 12.3164 22.6211C12.1055 22.3867 12 22.1172 12 21.8125V20.6875C12 20.3828 12.1055 20.125 12.3164 19.9141C12.5508 19.6797 12.8203 19.5625 13.125 19.5625H18.1875V14.5C18.1875 14.1953 18.293 13.9375 18.5039 13.7266C18.7383 13.4922 19.0078 13.375 19.3125 13.375H20.4375C20.7422 13.375 21 13.4922 21.2109 13.7266C21.4453 13.9375 21.5625 14.1953 21.5625 14.5V19.5625H26.625Z" fill="white"/>
</svg>
