<svg width="13" height="8" viewBox="0 0 13 8" fill="none" xmlns="http://www.w3.org/2000/svg">
<path d="M5.66016 7.16797L0.355469 1.86328C0.227865 1.73568 0.164062 1.58073 0.164062 1.39844C0.164062 1.21615 0.227865 1.0612 0.355469 0.933594L0.957031 0.332031C1.08464 0.204427 1.23958 0.140625 1.42188 0.140625C1.60417 0.122396 1.75911 0.177083 1.88672 0.304688L6.125 4.54297L10.3633 0.304688C10.4909 0.177083 10.6458 0.122396 10.8281 0.140625C11.0104 0.140625 11.1654 0.204427 11.293 0.332031L11.8945 0.933594C12.0221 1.0612 12.0859 1.21615 12.0859 1.39844C12.0859 1.58073 12.0221 1.73568 11.8945 1.86328L6.58984 7.16797C6.46224 7.3138 6.30729 7.38672 6.125 7.38672C5.94271 7.38672 5.78776 7.3138 5.66016 7.16797Z" fill="#575757"/>
</svg>
