<svg id="Layer_1" data-name="Layer 1" xmlns="http://www.w3.org/2000/svg" width="64" height="64" viewBox="0 0 64 64"><defs><style>.cls-1{fill:#1d1d1b;}.cls-2{fill:#ffe19b;}.cls-3{fill:#cbe7f5;}.cls-4{fill:#e6e4da;}.cls-5{fill:#fff;}</style></defs><title>moon-dreamy</title><g id="moon-dreamy"><path class="cls-1" d="M15.69,55.54a2.74,2.74,0,0,0-.62-2.69,2.37,2.37,0,0,0-2.72-.47s-1.87-2-2.59-.66.78,2.69.78,2.69A1.9,1.9,0,0,0,11,56.76a2.89,2.89,0,0,0,2.59.38s2.38,1.59,3,.44S15.69,55.54,15.69,55.54Zm-4.84-1.72s-.91-1.09-.53-1.56,1.56.47,1.56.47S10.91,53.82,10.85,53.82Zm4.94,3.38c-.31.22-1.16-.37-1.16-.37l.44-.69C15.35,56.29,16.1,57,15.79,57.2Z"/><path class="cls-1" d="M27,33.1c0-.53-3.81-2.25-3.87-7.19s2.38-9,8.31-10.19,8.5-.12,8.94-.56.75-2.75-2.75-4.81S23.47,7,15.16,14.92,7.72,31.38,8.57,34.79a20.89,20.89,0,0,0,8,11.91c4.84,3.34,7.53,4.44,11.78,5.09s8.75-1.41,11.19-3.06,3-3.41,2.94-4.16S41.6,42.63,41,42.79s-5.12,2.22-9.22,1-5.34-4-5.31-6S26.88,34.29,27,33.1Z"/><path class="cls-1" d="M7.79,8.7c.24-.08,1.72.13,1.78,0s.25-2.16.72-2.09.53,1.72.88,1.78,1.66-.09,1.75.25-1.09,1.34-1.06,1.5.25.88,0,1-1.25-.28-1.28-.19S9.25,12.63,9,12.51s-.5-.16-.47-.34S9.16,10,9.16,10L7.66,9.2C7.5,9.1,7.6,8.76,7.79,8.7Z"/><path class="cls-1" d="M7.16,18.73c.76-.47,1.28,0,1.12.84a.88.88,0,0,1-1.37.53A.9.9,0,0,1,7.16,18.73Z"/><path class="cls-1" d="M37.29,4.82a1.71,1.71,0,0,1,2.41,1.69,1.8,1.8,0,0,1-3,1.16A1.74,1.74,0,0,1,37.29,4.82Z"/><path class="cls-2" d="M37.58,5.55a.92.92,0,0,1,1.3.91,1,1,0,0,1-1.64.63A.94.94,0,0,1,37.58,5.55Z"/><path class="cls-1" d="M47,12c.2,0,0-2.84.34-3s1.28,1.78,1.63,1.75,1.63-.78,2-.56-.31,2.44-.25,2.59,1,1.41.66,1.66-1.87-.31-2-.22-.84,1.44-1.16,1.41-.34-2-.69-2.09-2.06-.28-2.16-.66S46.82,12,47,12Z"/><path class="cls-1" d="M54.13,17.23a2.53,2.53,0,0,1,2.75,2.72c-.22,2.16-3,2.25-4.16,1A2.31,2.31,0,0,1,54.13,17.23Z"/><path class="cls-2" d="M54.32,18.26a1.37,1.37,0,0,1,1.49,1.48c-.12,1.17-1.61,1.22-2.26.56A1.25,1.25,0,0,1,54.32,18.26Z"/><path class="cls-1" d="M34.75,21.67c1-.44,3.16,0,2.56,2.06S34,25.29,33.5,24.2A2,2,0,0,1,34.75,21.67Z"/><path class="cls-2" d="M35,22.34c.62-.26,1.88,0,1.53,1.23a1.29,1.29,0,0,1-2.27.28A1.19,1.19,0,0,1,35,22.34Z"/><path class="cls-1" d="M45.66,29.13s1.38-2.75,1.81-2.81.47,3,.47,3,1.94.16,1.88.47-1.56,1.06-1.56,1.06.53,2.19.25,2.34-1.41-1.66-1.41-1.66-2.12,1.09-2.31.84.47-2.12.47-2.12-1.5-.53-1.47-.78S45.44,29.32,45.66,29.13Z"/><path class="cls-1" d="M35.44,34.13a1.12,1.12,0,0,1,1.31,1.44,1.25,1.25,0,0,1-2,.31C34.16,35.2,34.88,34.29,35.44,34.13Z"/><path class="cls-1" d="M50,37.13c1-.26,2.53-.28,2.94,1.5s-1.66,2.53-3.31,2.13S47.69,37.73,50,37.13Z"/><path class="cls-2" d="M50.26,37.92a1.19,1.19,0,0,1,1.65.84c.23,1-.93,1.42-1.86,1.19A1,1,0,0,1,50.26,37.92Z"/><path class="cls-1" d="M8.6,46a1.19,1.19,0,0,1,1.87.94c0,1.09-1.47,1.34-2,.91A1.22,1.22,0,0,1,8.6,46Z"/><path class="cls-1" d="M34.54,54.1a1.89,1.89,0,0,1,2.53,2,2.29,2.29,0,0,1-3.5,1.38C32.07,56.32,32.6,54.6,34.54,54.1Z"/><path class="cls-2" d="M34.7,55A1,1,0,0,1,36,56a1.2,1.2,0,0,1-1.84.72C33.41,56.14,33.69,55.24,34.7,55Z"/><path class="cls-1" d="M49.22,52.2c.06-.09,1.59-2.81,2-3s.41-.16.5,0,0,2.84,0,2.84,1,0,1,.28-1.06,1.16-1.06,1.16.31,1.94,0,2.09a.75.75,0,0,1-.69-.09l-.44-1.09a10.94,10.94,0,0,1-2.22.88c-.16-.12-.59-.41-.37-.59a8.28,8.28,0,0,0,.78-1.28s-2.12-.19-2.19-.44-.06-.59.09-.66S49.22,52.2,49.22,52.2Z"/><path class="cls-3" d="M11.75,54s1.16-1.81,2.5-.81,0,3-.09,2.94A4.53,4.53,0,0,1,11.75,54Z"/><path class="cls-3" d="M11.5,55.17s1,1,1.31,1.22l.28.22a2.61,2.61,0,0,1-1.53-.16C10.94,56.1,11.5,55.17,11.5,55.17Z"/><path class="cls-1" d="M12.63,53.88s.56-.56.91-.53a.68.68,0,0,1,.5.28l-.62.38-.56.34A1.91,1.91,0,0,0,12.63,53.88Z"/><path class="cls-4" d="M38.29,13.87c.25-.06-1-2.1-2.85-2.81a16.77,16.77,0,0,0-9.23-.15A25.41,25.41,0,0,0,17,15.58,18.9,18.9,0,0,0,12.16,22,14.83,14.83,0,0,0,10,30a18.91,18.91,0,0,0,3.42,10.1,24.31,24.31,0,0,0,6,6,9.73,9.73,0,0,0,2,1.17S21,46,21.2,45.92A1,1,0,0,1,22,46a10.79,10.79,0,0,0,.23,1.65c.13.06.6.44.6.38a22.59,22.59,0,0,1-.23-2.71c.1-.12,1-.1,1.08.1s0,2.71.08,2.79a2.26,2.26,0,0,0,.65.42c.06,0-.1-1.81,0-1.81s.77.06.83.19,0,1.85.08,2A9.46,9.46,0,0,0,30.66,50a15,15,0,0,0,7.46-2.31c1.67-1,2.71-2.31,2.6-2.58s-.15-.35-.29-.37S34.06,47.1,30,45s-5.25-4.85-5.42-6.31.6-4.6.5-4.83-3.83-3.15-4-6.58.31-6.37,3.06-9.27a14.8,14.8,0,0,1,8.85-4.27C34.85,13.71,38.2,13.89,38.29,13.87Z"/><path class="cls-1" d="M24.1,13.19a1.59,1.59,0,0,1,2.08,1.21,1.72,1.72,0,0,1-2.46,1.79C22.08,15.62,22.89,13.62,24.1,13.19Z"/><path class="cls-5" d="M24.31,14a.76.76,0,0,1,1,.58.83.83,0,0,1-1.18.86C23.34,15.15,23.73,14.19,24.31,14Z"/><path class="cls-1" d="M17.47,17.31c.77-.55,3.15-.46,3.35,1.42S19,22.08,17.43,21A2.34,2.34,0,0,1,17.47,17.31Z"/><path class="cls-5" d="M18,18.11c.44-.32,1.82-.27,1.94.82a1.33,1.33,0,0,1-2,1.34A1.35,1.35,0,0,1,18,18.11Z"/><path class="cls-1" d="M14.12,21.52c.14-.13.79,0,.75.38a22.58,22.58,0,0,1-1.54,4.21c-.31.27-.75.4-.92,0A10.5,10.5,0,0,1,14.12,21.52Z"/><path class="cls-1" d="M14.27,28.77c1.34-.56,4.25,0,3.77,3.44s-3.85,2.52-4.75,1.15S12.08,29.69,14.27,28.77Z"/><path class="cls-5" d="M14.59,29.61c.94-.39,3,0,2.64,2.4s-2.7,1.76-3.32.8S13.06,30.26,14.59,29.61Z"/><path class="cls-1" d="M19.37,37.67c1.34-.56,4.25,0,3.77,3.44s-3.85,2.52-4.75,1.15S17.18,38.58,19.37,37.67Z"/><path class="cls-5" d="M19.69,38.51c.94-.39,3,0,2.64,2.4s-2.7,1.76-3.32.8S18.16,39.15,19.69,38.51Z"/><path class="cls-1" d="M27.66,45.87A1.13,1.13,0,0,1,29.29,47c0,.9-.67,1.58-1.6,1.25A1.26,1.26,0,0,1,27.66,45.87Z"/><path class="cls-5" d="M27.87,46.5a.53.53,0,0,1,.76.54c0,.42-.31.74-.75.59A.59.59,0,0,1,27.87,46.5Z"/></g></svg>