<svg id="Layer_1" data-name="Layer 1" xmlns="http://www.w3.org/2000/svg" width="64" height="64" viewBox="0 0 64 64"><defs><style>.cls-1{fill:#1d1d1b;}.cls-2{fill:#1f4863;}.cls-3{fill:#cbe7f5;}.cls-4{fill:#ffe19b;}.cls-5{fill:#e6e4da;}.cls-6{fill:#8ec480;}.cls-7{fill:#f2910d;}.cls-8{fill:#c8db89;}</style></defs><title>alien-obduction</title><g id="alien-obduction"><path class="cls-1" d="M60.78,35.68c0-6.31.16-21.22-.16-25.94s-3.19-5.06-4.78-5.12-9.41-.31-17.16-.44S19,3.4,13.93,3.65,7,4.78,5,6.31s-1.87,5.41-1.94,7.41c0,0-.06,8.81-.06,16.47s.38,23,.38,25.94.94,3.22,1.25,3.31a45.13,45.13,0,0,0,4.59.16c.31-.06,4.12-6.31,7.44-11.69s12.63-19.34,13.94-21,3.72-4.69,4.75-4.56.63,1.53.63,2.13S34.59,35.65,33.46,41s-4.31,17.31-4.25,18.41,1,1,2.16,1,5.84,0,10.53-.09,8.44-.19,12-.5,6.53-1.41,6.94-2.87S60.78,42,60.78,35.68ZM29.93,45.06c-.16-.31-1.78.16-2.06.31s-.16,3.25-.16,3.25a12.4,12.4,0,0,0-2.28-.75,3.42,3.42,0,0,0-2.16.28,3.59,3.59,0,0,0,0-.53,1.21,1.21,0,0,0-.25-.66,3.51,3.51,0,0,0,.56-.47,1.81,1.81,0,0,0,.47-1.19c0-.19-.09-.25-.31-.25s-.53.69-.72.81a1.58,1.58,0,0,1-1.16.44,4.33,4.33,0,0,1-1.47-.06s-.28-1.09-.37-1.37-.47-.12-.69,0,.34,1.84.34,1.84a1.93,1.93,0,0,0-.37,2.16,2.26,2.26,0,0,0,1.38,1.31,2.49,2.49,0,0,0,.16,1.19,1.31,1.31,0,0,0,1,1A14.6,14.6,0,0,0,22,54.87c.16.28.56.16.72.13a12.67,12.67,0,0,0,0-2.44l.41.06s.16,1.81.22,2.09.5.25.69.16-.06-2.12-.06-2.12a5,5,0,0,0,1.16,0c.5-.09,1-.22,1-.22s.06,2.22.09,2.38.59.13.81,0a10.15,10.15,0,0,0,.06-2.56L27.5,52s.09,1.94.13,2.13.44,0,.59-.19a11.29,11.29,0,0,0,0-2.28l.25-.44a10.8,10.8,0,0,0,.16-2.53c.06-.62.16-2.16.22-2.28A8,8,0,0,1,30,45.84C30.18,45.74,30.09,45.37,29.93,45.06Z"/><path class="cls-2" d="M7,7.24c1.31-1,3.69-1.72,7-2s16.38.47,22.56.72,16.31.41,18.34.47,3.94.94,4.09,3.75.16,13.84.16,19.75-.06,19.41-.09,22.28,0,3.66-1.22,4.56-6.25,1.59-11.19,1.69-10.62.16-12.5.16-2.78.09-2.84-.06,2.72-11.22,3.84-18,2.31-13.5,2.31-13.5a13.65,13.65,0,0,0,3.19,1c1.59.25,3.69-.25,4.44-1.91s.16-4.37-.09-5a7.49,7.49,0,0,0-.81-1.37,8.76,8.76,0,0,0,.41-1.91,6.53,6.53,0,0,0-.22-1.69,1.73,1.73,0,0,1,.81-.37,6.06,6.06,0,0,1,1.56,0A3.84,3.84,0,0,0,47.81,17c.53.28,2-.12,2.5-2a1.77,1.77,0,0,0-1.53-2.47A3,3,0,0,0,47,13.71a4.31,4.31,0,0,0-.44,1,9.13,9.13,0,0,0-1.47.06,9.24,9.24,0,0,0-1.19.41,4.33,4.33,0,0,0-1.69-2.28A4.5,4.5,0,0,0,39.43,12l-.87-1.87a1.55,1.55,0,0,0,.75-1.88C38.84,7,38,6.56,36.5,7.15A1.61,1.61,0,0,0,36.09,10a3.07,3.07,0,0,0,1.63.44l.44,1.5a2.16,2.16,0,0,0-1.5.41,3.61,3.61,0,0,0-.94.91A8.49,8.49,0,0,0,31.59,13a4,4,0,0,0-3.53,4.25,8.4,8.4,0,0,0,2,4.59,9.93,9.93,0,0,0,1,1.16,77.85,77.85,0,0,0-5.62,8.06c-3,4.84-8.78,14.13-10.78,17.34s-6,9.44-6.22,9.5a6.75,6.75,0,0,1-2.81-.12c-.47-.34-.47-5.72-.41-8.78s-.37-21.44-.44-27.72S3.9,9.68,7,7.24Z"/><path class="cls-1" d="M13.78,19.53c.56,0,1.47,0,1,.94s-2.09,2.56-.72,5.31,2,2.84,2.66,3,1.34-.09,1.5.22.31.5,0,.78A6.58,6.58,0,0,1,10.65,29c-3.38-3-2.09-6.09-.56-7.62A6,6,0,0,1,13.78,19.53Z"/><path class="cls-3" d="M12.84,20.84c.41-.16.31.34.22.53a4.52,4.52,0,0,0,0,4.91c1.56,2.81,1.66,2.78,1.63,2.91a3.93,3.93,0,0,1-4.12-1.94C9.06,24.84,9.81,22,12.84,20.84Z"/><path class="cls-1" d="M22.5,20.34c1.58-.32,2.63.88,2,2.63s-2,2-3.12,1A2.14,2.14,0,0,1,22.5,20.34Z"/><path class="cls-4" d="M22.59,21.26c.88-.18,1.47.49,1.12,1.47s-1.1,1.13-1.75.56A1.2,1.2,0,0,1,22.59,21.26Z"/><path class="cls-1" d="M52.94,16.58c1.26-.26,2.09.7,1.59,2.09S53,20.28,52,19.46A1.7,1.7,0,0,1,52.94,16.58Z"/><path class="cls-4" d="M53,17.31c.7-.14,1.17.39.89,1.17s-.88.9-1.39.44A1,1,0,0,1,53,17.31Z"/><path class="cls-1" d="M12.06,35.68c1-.49,2.81-.34,2.28,1.94s-2.75,2.41-3.28,1.5A2.41,2.41,0,0,1,12.06,35.68Z"/><path class="cls-4" d="M12.28,36.5c.58-.28,1.58-.19,1.28,1.09s-1.55,1.35-1.84.84A1.35,1.35,0,0,1,12.28,36.5Z"/><path class="cls-5" d="M15.71,12.78s-.5-.94-.34-1a1.48,1.48,0,0,1,.66-.22A7.24,7.24,0,0,1,16.5,13l.31,0s.22-.81.44-.84.53,0,.47.19-.31.78-.31.78,1.06-.19,1.13,0,.28.63,0,.66l-1.09.13a.62.62,0,0,1-.06.56.94.94,0,0,1-.34.31s.47,1.09.22,1.28a1.32,1.32,0,0,1-.59.22l-.34-1.41s-.91,1.09-1.16,1-.75-.47-.62-.56,1-1,1-1a6.07,6.07,0,0,1-1.31.06c0-.09-.16-.56,0-.62s.75-.25.75-.25-.66-.16-.66-.31.34-.84.47-.75A8.58,8.58,0,0,0,15.71,12.78Z"/><path class="cls-5" d="M24.06,10.28s-.16-.56.19-.59.91,0,.91-.12-.28-1.34-.06-1.47.66-.25.63-.06.09,1.34.09,1.34.81-.66,1-.53a1,1,0,0,1,.25.41l-.87.69a5.32,5.32,0,0,1,1.22.28c0,.09.19.53-.22.53H26.09a4.62,4.62,0,0,0,.38.84c.19.28.41.44.25.56s-.78.34-.84.25-.37-.91-.47-1.09-.22-.41-.22-.41-.59.63-.66.59-.56-.47-.44-.56l.56-.41Z"/><path class="cls-6" d="M37.31,7.81c.88-.18,1.31.41,1.28.84s-1.22,1.06-1.69.72S36.09,8.06,37.31,7.81Z"/><path class="cls-6" d="M37,13.59c.09-.12.63-.72,2.69-.31s3,1.09,3.56,2.47a4,4,0,0,1,.06,2.62,18.14,18.14,0,0,0-3.16-2.84A15.9,15.9,0,0,0,37,13.59Z"/><path class="cls-6" d="M48.56,13.59c.75-.33,1.06.81.84,1.56a1.09,1.09,0,0,1-1.59.66C47.31,15.46,47.21,14.18,48.56,13.59Z"/><path class="cls-1" d="M44.9,8.59a1.56,1.56,0,0,1,2.44,1.16c.13,1.53-2.09,1.72-2.69.81S44.12,9.18,44.9,8.59Z"/><path class="cls-4" d="M45.43,9.25a.64.64,0,0,1,1,.47c.05.63-.86.7-1.1.33S45.11,9.5,45.43,9.25Z"/><path class="cls-5" d="M50.31,25.43c.13,0,1.34.13,1.38,0s.06-1.66.41-1.66.69,0,.63.19a4.16,4.16,0,0,0-.16,1.28c.09,0,1.19-1.06,1.38-1s.56.22.47.38-1.66,1.56-1.66,1.56a11.6,11.6,0,0,1,.13,2.09c-.12,0-.66.22-.75,0a12.18,12.18,0,0,1-.19-1.56s-.81,1.16-1,1-.56-.62-.41-.72.88-.75.88-.75l-1.12-.19Z"/><path class="cls-1" d="M40.87,30.15a1.24,1.24,0,0,1,1.88,1.41,1.33,1.33,0,0,1-2.41.56A1.59,1.59,0,0,1,40.87,30.15Z"/><path class="cls-4" d="M41.22,30.83a.53.53,0,0,1,.79.59.56.56,0,0,1-1,.24A.67.67,0,0,1,41.22,30.83Z"/><path class="cls-1" d="M40.93,45.68a1.24,1.24,0,0,1,1.88,1.41,1.33,1.33,0,0,1-2.41.56A1.59,1.59,0,0,1,40.93,45.68Z"/><path class="cls-4" d="M41.28,46.36a.53.53,0,0,1,.79.59.56.56,0,0,1-1,.24A.67.67,0,0,1,41.28,46.36Z"/><path class="cls-1" d="M51.37,41a1.24,1.24,0,0,1,1.88,1.41,1.33,1.33,0,0,1-2.41.56A1.59,1.59,0,0,1,51.37,41Z"/><path class="cls-4" d="M51.72,41.7a.53.53,0,0,1,.79.59.56.56,0,0,1-1,.24A.67.67,0,0,1,51.72,41.7Z"/><path class="cls-1" d="M51.5,51.15a1.24,1.24,0,0,1,1.88,1.41,1.33,1.33,0,0,1-2.41.56A1.59,1.59,0,0,1,51.5,51.15Z"/><path class="cls-4" d="M51.84,51.83a.53.53,0,0,1,.79.59.56.56,0,0,1-1,.24A.67.67,0,0,1,51.84,51.83Z"/><path class="cls-5" d="M45,36.18s-.37-.91-.19-1.06.47-.31.53-.16.44,1.25.44,1.25.38-.75.53-.75.63,0,.59.16a5.08,5.08,0,0,1-.41.75s1.09.16,1.09.31a3.06,3.06,0,0,1-.16.59l-1.22.13s.72,1.78.56,1.91-.59.28-.66.19a14,14,0,0,0-.5-1.5c-.09,0-.91,1.56-1.06,1.47s-.66-.28-.56-.41.75-.81.63-.91-.78-.06-.81-.28,0-.66.13-.69.72-.09.72-.09-.78-.37-.72-.53-.06-.59.31-.5A5.36,5.36,0,0,0,45,36.18Z"/><path class="cls-5" d="M39.37,51.18s.28-.31.44-.25A5.91,5.91,0,0,1,40.53,52s.25-.69.44-.62.41,0,.34.16S41,52.87,41,52.87s1.47.44,1.47.72,0,.53-.09.53-.84-.12-.84-.12.16.59,0,.66l-.25.09-.81-.94s-.41,1.28-.56,1.25l-.78-.12.06-.69s-.41,0-.5-.28-.25-1.16,0-1.19,1.25,0,1.22-.09S39.4,51.4,39.37,51.18Z"/><path class="cls-7" d="M20.71,47.28c.44-.08,1.47-.28,1.69.16a.91.91,0,0,1-.25,1.31,2.13,2.13,0,0,1-1.87.13C20.12,48.68,19.43,47.49,20.71,47.28Z"/><path class="cls-7" d="M22,49.81a5.15,5.15,0,0,1,3.22-1.12c1.53.13,2.06.63,2.22,1.13a1.24,1.24,0,0,1-.56,1.59,5.13,5.13,0,0,1-3.66.25C21.5,51.28,21.43,50.34,22,49.81Z"/><path class="cls-8" d="M31.84,21.9c-.06-.12-2.59-2.72-2.41-4.62s.59-4,4.63-3,6.75,2.72,8.5,5.22,1.91,4.5,1.72,5.16a4.94,4.94,0,0,1-.34.94s-2.19-3.87-2.34-3.87-.78.41-.62.56,2.78,4.06,2.56,4.16l-.69.28s-2.19-3.87-2.37-3.94-.75.19-.62.31,2.34,3.72,2.25,3.75a7,7,0,0,1-.81,0l-1.91-3.12s-.5.16-.44.28,1.69,2.91,1.56,2.91-1.56-.56-1.78-.66l-1.16-.5s.75-3.22.09-4.12-.78-1.69-2.56-1.47A6.32,6.32,0,0,0,31.84,21.9Z"/><path class="cls-1" d="M30.56,17a1.59,1.59,0,0,1,1.06-1.22c.94-.31,1.41-.06,1.53.25s.22.63-.12.69-.94-.25-1.38.22-.16.66-.53.66S30.65,17.12,30.56,17Z"/></g></svg>