<svg id="Layer_1" data-name="Layer 1" xmlns="http://www.w3.org/2000/svg" width="64" height="64" viewBox="0 0 64 64"><defs><style>.cls-1{fill:#1d1d1b;}.cls-2{fill:#fab900;}.cls-3{fill:#ffe19b;}</style></defs><title>sun</title><g id="sun"><path class="cls-1" d="M24.19,4.27a2.85,2.85,0,0,1,3,.72c.41.31.44.63.84.5s2.06-2.31,3.75-2.16S35,6.18,35.44,6.24s2.94-1.78,4.44-1.91,3.06,0,3.38,1.78-.12,2.5.91,3,5-1.34,6.53.59-.19,4.59.19,5,4.59.34,5.38,1.59S56.34,18.86,56,20s-.91,1.91-.19,2.47,1.91.5,2.53.72,1.94.47,2,2.91S58,28.71,58.19,29.86,61,32,61.5,33.39A2.83,2.83,0,0,1,60,37.05c-1.56.88-2.34.88-2.34,1.41a17.52,17.52,0,0,0,.19,4.41c.41,1.69.34,2.22-.16,3.13s-1.59.66-2.31.59-1.59-.28-1.87.16.84,3.22.34,4.19a2.37,2.37,0,0,1-2.62,1.28c-1.19-.19-1.59-.66-2.12-.44s-.44,2.72-1.53,3.91a3,3,0,0,1-3.12,1.22c-1.37-.16-2-1.28-2.72-1.06s-.94,3-2.5,3.56a4.32,4.32,0,0,1-3.66-.28c-.94-.44-.84-1.09-1.78-.78s-1.91,1.91-3.56,2.25a2.68,2.68,0,0,1-3-1C26.75,59,26.94,58.11,26,58s-2.06,1.84-3.41,1.94A4.11,4.11,0,0,1,19,58c-.91-1.31-.22-2.75-1.25-3.06s-3,1.22-4.53,0a3,3,0,0,1-1.44-2.66c0-.53-.19-1.25-1-1.25s-3.06.41-3.88-.47a3,3,0,0,1-.34-3.47c.69-1.12,1.56-1.72,1.09-2.31s-3.09-1.66-3.59-3.56,1.13-3.28,1.31-4.12.59-1.75-.12-2-2.47-1.19-2.75-2S2.09,31.3,3.09,31s3.44-1.44,3.12-2.16-2-2.12-2.34-3.12-.25-3.16.81-3.66,3.22-.16,3.38-.72-1.47-2.44-1.5-3.47.72-2.75,1.75-3,3.13.59,3.75.06-.41-3.44.56-4.06a3.65,3.65,0,0,1,3-.16c.5.25,1,.88,1.34.47s-.62-3,.44-3.91,3.19.75,4,.31S22.47,4.86,24.19,4.27Z"/><path class="cls-2" d="M24.66,5.74c.65-.07,1.5,1.84,2.94,1.78A4.24,4.24,0,0,0,30.28,6c.5-.41,1.47-1.06,1.69-1s1.62,2.88,3,3.28,2.34-1.16,3.41-1.69,1.75-1.12,2.47-.66.06,3.56,1.81,4.56,4.72-.66,6.13,0-.34,4.59.34,5.38,4.72.28,5.38,1.47-1.5,3.31-1.22,4.91,1.5,1.72,2.84,2.31,2.09.22,2.16,1.41-2.94,3-2.19,4.88,3.25,2.16,3.16,3.56S56,36.52,55.66,37.83s.88,6.81.22,7.13-2.94-.19-3.81.59,0,4-.62,4.53-2.69-.44-4,.56-1,4.34-1.94,4.47-2.69-1.78-4.66-.87-1.66,3.13-2.78,3.31S36,55.93,33.78,56.39,31,58.86,29.72,58.71s-1.62-2.66-3-2.78S23,58.3,21.66,57.77s-.28-3.47-2.25-4.37-4.09.25-5,.06-.37-2.59-.87-3a4.1,4.1,0,0,0-2.84-1.19c-1.59,0-2.5-.12-2.13-1s2.34-2.78,1.59-3.59S6,42,6.16,40.55s1.91-3.44,1.47-4.84a3.75,3.75,0,0,0-1.81-2.28c-.53-.31-1.69-1-1.06-1.41S8.53,30.11,8.38,29,6.31,26.74,6,25.52s-.28-2.12.28-2.31,3.66-.34,4-1.44-1.44-3-1.53-3.84.19-1.53,1-1.44,3.34.75,4.06-.78.16-3.37.59-3.41,1.72,1.13,3.25.53,1.22-2.44,1.28-2.78-.25-1.22.44-1.25S22.69,10,23.5,8.64,24.09,5.8,24.66,5.74Z"/><path class="cls-1" d="M30.41,15.83c4.11-.62,7.88.16,12,5s4.19,6.13,4.06,10.88-2.12,9.59-4.56,11.75-8.78,4.31-14,2.31-8.72-5.12-10.62-10.16.19-11.06,2-14.09S25,16.64,30.41,15.83Z"/><path class="cls-3" d="M30.81,17.39a12.11,12.11,0,0,1,10.84,5.09c2.78,4,3.63,5.34,3,10.13S42.91,39.77,40.28,42A12.85,12.85,0,0,1,28.5,44.08c-4.16-1.5-7.47-4-9-8.56s-.09-9.59,1.22-12.28S26.22,17.93,30.81,17.39Z"/><path class="cls-1" d="M25.34,22.24c.34,0,1,.94.66,1.25s-2.12.88-3.12,2.63-.62,4.13-.81,4.41-1.16.47-1.34.22a10,10,0,0,1,.5-5.19A6.33,6.33,0,0,1,25.34,22.24Z"/><path class="cls-1" d="M21.34,12c.26-.17,2.72,3.5,2.53,3.72s0,.63-.44.28a18.61,18.61,0,0,1-2.78-3.5C20.75,12.27,21.25,12.08,21.34,12Z"/><path class="cls-1" d="M25.59,10.33c0-.14.41-.34.62-.19a14.47,14.47,0,0,1,1.66,3.44c-.12.22-.31.38-.47.28S25.59,10.39,25.59,10.33Z"/><path class="cls-1" d="M30.47,8.52c.11-.26,1-.12,1.09.06a27.11,27.11,0,0,1,0,4.5c-.19.09-.31.19-.47,0A28.16,28.16,0,0,1,30.47,8.52Z"/><path class="cls-1" d="M38.41,9.05c.16-.1.47-.22.41.16a47.91,47.91,0,0,1-1.53,5.34c-.19,0-.72,0-.72-.22A52.81,52.81,0,0,1,38.41,9.05Z"/><path class="cls-1" d="M42.34,16.77a17.51,17.51,0,0,1,3.41-3.37c.22.09.47.22.34.31S43.19,17.55,43,17.49A2.06,2.06,0,0,1,42.34,16.77Z"/><path class="cls-1" d="M46.34,21.64a27.16,27.16,0,0,1,3.84-2.53c.22.09.34.34.22.44s-3.59,2.88-3.75,2.81S46.34,21.64,46.34,21.64Z"/><path class="cls-1" d="M48.94,26.93c.21-.31,3.22,0,3.38.16s.22.38.06.44-2.87.66-3.22.38A.82.82,0,0,1,48.94,26.93Z"/><path class="cls-1" d="M49,32.74c.27-.27,5,1.25,4.87,1.5s.25.56-.19.56a40.67,40.67,0,0,1-4.81-1.12A1.27,1.27,0,0,1,49,32.74Z"/><path class="cls-1" d="M48.72,37.14c.1-.07,4.09,1.19,4,1.53s0,.38-.16.41A22.92,22.92,0,0,1,48.34,38,1.79,1.79,0,0,1,48.72,37.14Z"/><path class="cls-1" d="M45.69,42.43a16.31,16.31,0,0,1,3.19,3c-.12.22.06.19-.12.22a21,21,0,0,1-3.53-2.59C45.25,42.89,45.66,42.52,45.69,42.43Z"/><path class="cls-1" d="M42.56,45.64c.19.06,2.75,3.25,2.63,3.5s-.31.44-.5.38A20.9,20.9,0,0,1,42,46.05C42.16,45.89,42.47,45.61,42.56,45.64Z"/><path class="cls-1" d="M37.88,48.08A16.63,16.63,0,0,1,40,52.3c-.16.16-.59.34-.69.28a38,38,0,0,1-2.22-4.34A2.5,2.5,0,0,1,37.88,48.08Z"/><path class="cls-1" d="M32.88,49.36c.11-.11.78-.06.78.06S33,54.77,33,54.77s-.44,0-.47-.12S32.75,49.49,32.88,49.36Z"/><path class="cls-1" d="M28.5,48.86c.09-.13.59-.19.59.06a23.07,23.07,0,0,1-.91,3.78c-.19.09-.44.28-.47.13S28.44,49,28.5,48.86Z"/><path class="cls-1" d="M23,47.46c.14-.13.75.16.72.41a19.19,19.19,0,0,1-1.41,3.34c-.19,0-.59-.06-.59-.16A19.35,19.35,0,0,1,23,47.46Z"/><path class="cls-1" d="M18.66,44.27a.23.23,0,0,1,.34.28,46.21,46.21,0,0,1-2.72,3.88c-.12,0-.69-.12-.62-.28S18.44,44.46,18.66,44.27Z"/><path class="cls-1" d="M14.94,40.77c.15,0,.41.38.38.56a14.7,14.7,0,0,1-3,2c-.19-.06-.66-.44-.5-.53S14.59,40.86,14.94,40.77Z"/><path class="cls-1" d="M9.94,36.8A25.75,25.75,0,0,1,14,36.33c.13.16.34.53.09.66a34.74,34.74,0,0,1-4,.88C9.91,37.8,9.94,36.8,9.94,36.8Z"/><path class="cls-1" d="M9.59,30.64a18.68,18.68,0,0,1,3.56,0c.13.19.25.38.09.47a30.9,30.9,0,0,1-3.75.22C9.41,31.27,9.41,30.71,9.59,30.64Z"/><path class="cls-1" d="M10.53,24.43c.13-.08,4.31,1.34,4.25,1.66s0,.34-.19.38-4.12-1.16-4.34-1.25S10.28,24.58,10.53,24.43Z"/><path class="cls-1" d="M13.31,20.27c.19,0,3.28,1.47,3.22,1.72s0,.5-.28.38S13,21.05,12.88,20.89,13.09,20.27,13.31,20.27Z"/><path class="cls-1" d="M17.44,14.86c.22.15,3,2.75,2.81,2.88s-.56.34-.69.25-2.78-2.47-2.62-2.69S17.34,14.8,17.44,14.86Z"/></g></svg>