<svg width="61" height="41" viewBox="0 0 61 41" fill="none" xmlns="http://www.w3.org/2000/svg">
<path d="M16.3287 38.6793C14.4601 38.6793 12.5691 38.8764 10.7311 38.6444C4.38895 37.8414 -0.135611 32.3645 0.00310412 25.8547C0.1357 19.6487 5.03153 14.3895 11.2533 13.8186C11.8592 13.7632 12.1101 13.5537 12.3141 12.9828C15.1863 4.9985 22.2649 -0.0245527 30.5531 9.02609e-05C38.8046 0.0247332 45.8321 5.04779 48.6799 12.9951C48.888 13.5784 49.1572 13.757 49.7509 13.8166C56.4357 14.4799 61.3193 20.2279 60.9827 26.9985C60.6584 33.5227 55.1913 38.7614 48.6269 38.8127C45.771 38.8353 42.913 38.821 40.0571 38.8107C38.8087 38.8066 38.1192 38.211 38.1437 37.1945C38.1661 36.2232 38.823 35.681 40.0469 35.6769C42.8661 35.6667 45.6873 35.7098 48.5065 35.6646C53.2126 35.5866 57.0864 32.2762 57.7535 27.822C58.443 23.224 55.9257 18.8848 51.6317 17.437C50.6199 17.0961 49.5101 16.9544 48.4371 16.9031C46.7542 16.823 46.5665 16.7142 46.081 15.1227C44.0962 8.60664 39.8103 4.47689 33.1254 3.38028C26.3651 2.27135 20.8838 4.77672 17.0182 10.4918C16.0594 11.9067 15.5025 13.6153 14.9048 15.2418C14.403 16.6094 14.1623 16.899 12.7465 16.8805C7.75279 16.8189 3.75453 20.3264 3.16907 25.2797C2.61421 29.9721 5.74142 34.4366 10.4822 35.4182C12.2223 35.7776 14.0623 35.6852 15.8574 35.7242C17.5893 35.7611 19.3253 35.6831 21.0593 35.6872C22.1914 35.6893 22.832 36.2622 22.8483 37.2089C22.8666 38.1905 22.1935 38.8004 21.0205 38.8127C19.4559 38.8312 17.8912 38.8169 16.3266 38.8169C16.3287 38.7717 16.3287 38.7244 16.3287 38.6793Z" fill="#515270"/>
<path d="M32.0423 19.2527C32.0423 19.7866 32.0423 20.146 32.0423 20.5074C32.0423 26.5963 32.0443 32.6852 32.0423 38.772C32.0423 39.1129 32.0729 39.4681 31.9954 39.7926C31.8056 40.5894 31.2753 41.0145 30.4511 40.9981C29.6739 40.9837 29.1701 40.5606 28.9987 39.807C28.9171 39.4476 28.9497 39.0595 28.9497 38.6837C28.9477 32.6297 28.9477 26.5758 28.9477 20.5218C28.9477 20.1604 28.9477 19.7969 28.9477 19.1973C28.3949 19.6059 28.0216 19.877 27.6544 20.1563C26.053 21.3679 24.4578 22.5918 22.8483 23.7932C21.912 24.4934 20.9899 24.4154 20.431 23.6309C19.9027 22.8916 20.0924 21.9675 20.9491 21.3124C23.7377 19.1849 26.5385 17.0759 29.3271 14.9484C30.1145 14.3488 30.8571 14.3426 31.6486 14.9463C34.4371 17.0739 37.24 19.1808 40.0306 21.3083C40.8915 21.9655 41.0792 22.8752 40.5549 23.6207C40.0082 24.401 39.0494 24.4832 38.1376 23.7993C36.422 22.5117 34.7166 21.2098 33.0051 19.916C32.7481 19.7209 32.4707 19.5464 32.0423 19.2527Z" fill="#515270"/>
</svg>
